<svg xmlns="http://www.w3.org/2000/svg" viewBox="0 0 443.61 354.89"><defs><style>.cls-1{fill:#fff100;}.cls-13,.cls-14,.cls-15,.cls-16,.cls-19,.cls-2,.cls-3,.cls-8{fill:none;stroke-miterlimit:10;}.cls-19,.cls-2,.cls-3{stroke:#231815;}.cls-2{stroke-width:0.34px;}.cls-3{stroke-width:0.5px;}.cls-4,.cls-5,.cls-6{font-size:14px;}.cls-18,.cls-4,.cls-5{font-family:MicrosoftYaHei, Microsoft YaHei;}.cls-5,.cls-9{fill:#c30d23;}.cls-6{font-family:MicrosoftYaHei-Bold, Microsoft YaHei;font-weight:700;}.cls-7{letter-spacing:0em;}.cls-8{stroke:#000;}.cls-10{letter-spacing:-0.01em;}.cls-11{letter-spacing:-0.01em;}.cls-12{letter-spacing:-0.01em;}.cls-13,.cls-14,.cls-15,.cls-16{stroke:#094;}.cls-13,.cls-14,.cls-15{stroke-width:1.03px;}.cls-14{stroke-dasharray:2.01 2.01;}.cls-15{stroke-dasharray:1.96 1.96;}.cls-16{stroke-width:1.29px;stroke-dasharray:2.5 2.5;}.cls-17{fill:#094;}.cls-18{font-size:36px;}.cls-20{fill:#231815;}</style></defs><title>资源 5</title><g id="图层_2" data-name="图层 2"><g id="图层_4" data-name="图层 4"><rect class="cls-1" x="71" y="223.52" width="112" height="25"/><rect class="cls-2" x="60" y="35.52" width="216" height="44"/><rect class="cls-3" x="60" y="191.52" width="216" height="94"/><text class="cls-4" transform="translate(147 61.51)">原始 src_index.js</text><text class="cls-5" transform="translate(74 241.51)">dist_index.html</text><text class="cls-5" transform="translate(183 271.51)">es6_main.js</text><text class="cls-4" transform="translate(74 24.51)">原始 index.html</text><text class="cls-6" transform="translate(74 213.51)">dist</text><text class="cls-6" transform="translate(74 61.51)">s<tspan class="cls-7" x="6.91" y="0">r</tspan><tspan x="12.78" y="0">c</tspan></text><text class="cls-4" transform="translate(224 29.51)">链接</text><polyline class="cls-8" points="185 17.52 210 17.52 210 28.46"/><polygon points="210 35.52 205.94 25.57 210 27.93 214.06 25.57 210 35.52"/><text class="cls-4" transform="translate(224 246.51)">链接</text><text class="cls-4" transform="translate(96 334.51)">浏览器最终执行<tspan x="0" y="16.8">这个html文件!</tspan></text><text class="cls-4" transform="translate(356 168.51)">执行命令<tspan class="cls-9"><tspan x="0" y="16.8">n</tspan><tspan class="cls-10" x="8.63" y="16.8">p</tspan><tspan x="17.38" y="16.8">x </tspan><tspan class="cls-11" x="28.62" y="16.8">w</tspan><tspan x="39.6" y="16.8">eb</tspan><tspan class="cls-12" x="56.49" y="16.8">p</tspan><tspan x="65.23" y="16.8">ack</tspan></tspan><tspan x="0" y="33.6">进行打包</tspan></text><polyline class="cls-8" points="185 234.52 210 234.52 210 245.46"/><polygon points="210 252.52 205.94 242.57 210 244.93 214.06 242.57 210 252.52"/><polyline class="cls-13" points="294 93.52 294 94.52 293 94.52"/><line class="cls-14" x1="290.99" y1="94.52" x2="43" y2="94.52"/><polyline class="cls-13" points="42 94.52 41 94.52 41 93.52"/><line class="cls-15" x1="41" y1="91.56" x2="41" y2="2.5"/><polyline class="cls-13" points="41 1.52 41 0.52 42 0.52"/><line class="cls-14" x1="44.01" y1="0.52" x2="292" y2="0.52"/><polyline class="cls-13" points="293 0.52 294 0.52 294 1.52"/><line class="cls-15" x1="294" y1="3.47" x2="294" y2="92.54"/><polyline class="cls-16" points="297 50.84 341 50.84 341 266.94 245.13 266.94"/><polygon class="cls-17" points="236 266.94 248.87 261.68 245.81 266.94 248.87 272.19 236 266.94"/><text class="cls-18" transform="translate(0 67.52)">1.</text><text class="cls-18" transform="translate(357 141.52)">2.</text><text class="cls-18" transform="translate(72 178.52)">3.</text><line class="cls-19" x1="139" y1="312.52" x2="139" y2="271.58"/><polygon class="cls-20" points="139 264.52 143.06 274.47 139 272.11 134.94 274.47 139 264.52"/></g></g></svg>