<svg xmlns="http://www.w3.org/2000/svg" viewBox="0 0 309.97 144.57"><defs><style>.cls-1{font-size:9px;}.cls-1,.cls-6,.cls-7{fill:#231815;}.cls-1,.cls-7{font-family:MicrosoftYaHei, Microsoft YaHei;}.cls-2{letter-spacing:0.04em;}.cls-3{letter-spacing:-0.01em;}.cls-4,.cls-5{fill:none;stroke:#231815;stroke-miterlimit:10;}.cls-4{stroke-width:0.5px;}.cls-5{stroke-width:0.75px;}.cls-7{font-size:11px;}.cls-8{letter-spacing:-0.01em;}</style></defs><title>资源 1</title><g id="图层_2" data-name="图层 2"><g id="图层_1-2" data-name="图层 1"><text class="cls-1" transform="translate(206.67 109.58)">grand son</text><text class="cls-1" transform="translate(175.67 74.92)">son</text><text class="cls-1" transform="translate(153.33 44.25)">father</text><text class="cls-1" transform="translate(133.33 16.92)"><tspan xml:space="preserve">grand father    @clic</tspan><tspan class="cls-2" x="87.42" y="0">k</tspan><tspan x="92.71" y="0">.captu</tspan><tspan class="cls-3" x="119.01" y="0">r</tspan><tspan x="122.32" y="0">e=&quot;方法名&quot;</tspan></text><rect class="cls-4" x="190.72" y="90.32" width="76.33" height="34"/><rect class="cls-4" x="163.97" y="59.92" width="113.1" height="71.74"/><rect class="cls-4" x="143.97" y="28.32" width="142.42" height="109.33"/><rect class="cls-4" x="124.63" y="0.25" width="185.09" height="144.07"/><path class="cls-5" d="M128.39,15C96.79,34.1,78.13,63.56,83.72,84.32c6.85,25.41,52.63,47.43,107,29.12"/><polygon class="cls-6" points="195.72 111.66 189.71 117.02 190.36 113.56 187.67 111.28 195.72 111.66"/><path class="cls-5" d="M211.72,98.79s-.86-13.45-21.77-18"/><polygon class="cls-6" points="184.72 79.92 192.61 78.25 190.32 80.93 191.52 84.25 184.72 79.92"/><path class="cls-5" d="M186.56,67.53s-.86-13.45-21.78-18"/><polygon class="cls-6" points="159.56 48.66 167.44 46.99 165.16 49.67 166.36 52.99 159.56 48.66"/><text class="cls-7" transform="translate(17.72 74.92)">事件捕获<tspan x="-17.72" y="13.2">(e</tspan><tspan class="cls-8" x="-7.81" y="13.2">v</tspan><tspan x="-2.11" y="13.2">ent captu</tspan><tspan class="cls-3" x="47.77" y="13.2">r</tspan><tspan x="51.81" y="13.2">e)</tspan></text></g></g></svg>