<svg xmlns="http://www.w3.org/2000/svg" viewBox="0 0 1054 456" width="1054" xmlns:xlink="http://www.w3.org/1999/xlink" height="456">
    <defs/>
    <g transform="translate(-315.50,-150.00)">
        <g transform="translate(337.00,302.00)" id="shape1">
            <path fill="#ffffff" d="M79.0,38.0L79.0,.0L.0,.0L.0,38.0L79.0,38.0z" fill-rule="nonzero" stroke="#323232"/>
            <text style="fill:#191919;font-family:Microsoft YaHei;font-size:10.00pt" xml:space="preserve">
                <tspan x="7.0" y="24.5">文本关键词</tspan>
            </text>
        </g>
        <g transform="translate(461.50,275.00)" id="shape2">
            <path fill="#ffffff" d="M294.5,92.0L294.5,.0L.0,.0L.0,92.0L294.5,92.0z" fill-rule="nonzero" stroke="#323232"/>
            <text style="fill:#191919;font-family:Microsoft YaHei;font-size:10.00pt" xml:space="preserve">
                <tspan x="115.3" y="23.0">(文生图 用)</tspan>
                <tspan x="122.8" y="42.0">Clip模型</tspan>
                <tspan x="15.8" y="61.0">(Contrastive Language-Image Pre-training)</tspan>
                <tspan x="59.3" y="80.0">作用是: 将文本和图像进行对比</tspan>
            </text>
        </g>
        <g transform="translate(416.00,321.00)" id="shape3">
            <path fill="none" d="M.0,.0L39.5,.0" stroke="#191919"/>
            <path fill="#191919" d="M39.5,-3.0L45.5,.0L39.5,3.0L39.5,-3.0" stroke-width="1" stroke="#191919" stroke-linecap="round"/>
        </g>
        <g transform="translate(794.00,251.07)" id="shape4">
            <path fill="#ffffff" d="M119.5,139.9L119.5,.0L.0,.0L.0,139.9L119.5,139.9z" fill-rule="nonzero" stroke="#323232"/>
            <text style="fill:#191919;font-family:Microsoft YaHei;font-size:10.00pt" xml:space="preserve">
                <tspan x="33.8" y="19.0">潜在空间</tspan>
            </text>
        </g>
        <g transform="translate(756.00,321.00)" id="shape5">
            <path fill="none" d="M.0,.0L32.0,.0" stroke="#191919"/>
            <path fill="#191919" d="M32.0,-3.0L38.0,.0L32.0,3.0L32.0,-3.0" stroke-width="1" stroke="#191919" stroke-linecap="round"/>
        </g>
        <g transform="translate(1268.75,284.00)" id="shape6">
            <path fill="#ffffff" d="M100.0,74.0L100.0,.0L.0,.0L.0,74.0L100.0,74.0z" fill-rule="nonzero" stroke="#323232"/>
            <text style="fill:#191919;font-family:Microsoft YaHei;font-size:10.00pt" xml:space="preserve">
                <tspan x="24.0" y="42.5">输出图片</tspan>
            </text>
        </g>
        <g transform="translate(951.50,246.50)" id="shape7">
            <path fill="#ffffff" d="M279.3,358.5L279.3,.0L.0,.0L.0,358.5L279.3,358.5z" fill-rule="nonzero" stroke="#323232"/>
            <text style="fill:#191919;font-family:Microsoft YaHei;font-size:10.00pt" xml:space="preserve">
                <tspan x="4.1" y="19.0">VAE模型</tspan>
                <tspan x="4.1" y="38.0">(Variational Autoencoder 变分自编码器)</tspan>
                <tspan x="4.1" y="76.0">潜在空间中的内容不是人类可以读取的内容，</tspan>
                <tspan x="4.1" y="95.0">文本输进潜空间前, 需要经过转换，</tspan>
                <tspan x="4.1" y="114.0">同样, </tspan>
                <tspan style="fill:#c00000" x="37.1">潜空间中的"图片"要想"输出"出来, 也需</tspan>
                <tspan style="fill:#c00000" x="4.1" y="133.0">要转换, 所以需要经过这个vae模型</tspan>
                <tspan style="fill:#c00000" x="4.1" y="171.0">VAE模型功能是: 将加噪后的潜空间数据信息, </tspan>
                <tspan style="fill:#c00000" x="4.1" y="190.0">转化为正常图片。</tspan>
                <tspan x="4.1" y="224.0">通常也被称为调色滤镜，主要影响的是色彩质</tspan>
                <tspan x="4.1" y="243.0">感。</tspan>
                <tspan x="4.1" y="262.0">如果你发现生成出来的图像的饱和度很低，呈</tspan>
                <tspan x="4.1" y="281.0">现出灰色质感，原因就是缺少VAE了.</tspan>
                <tspan x="4.1" y="319.0">VAE作为CKPT主模型的一部分，通常会被整合</tspan>
                <tspan x="4.1" y="338.0">在CKPT里面.</tspan>
            </text>
        </g>
        <g transform="translate(913.50,321.00)" id="shape8">
            <path fill="none" d="M.0,.0L22.0,.0L22.0,104.8L32.0,104.8" stroke="#191919"/>
            <path fill="#191919" d="M32.0,101.8L38.0,104.8L32.0,107.8L32.0,101.8" stroke-width="1" stroke="#191919" stroke-linecap="round"/>
        </g>
        <g transform="translate(1230.75,425.75)" id="shape9">
            <path fill="none" d="M.0,.0L22.0,.0L22.0,-104.8L32.0,-104.8" stroke="#191919"/>
            <path fill="#191919" d="M32.0,-107.8L38.0,-104.8L32.0,-101.8L32.0,-107.8" stroke-width="1" stroke="#191919" stroke-linecap="round"/>
        </g>
        <g transform="translate(811.25,291.45)" id="shape10">
            <path fill="#ffffff" d="M85.0,75.5L85.0,.0L.0,.0L.0,75.5L85.0,75.5z" fill-rule="nonzero" stroke="#323232"/>
            <text style="fill:#191919;font-family:Microsoft YaHei;font-size:10.00pt" xml:space="preserve">
                <tspan x="13.5" y="19.0">KSampler</tspan>
                <tspan x="10.0" y="38.0">（采样器）</tspan>
            </text>
        </g>
        <g transform="translate(316.50,151.00)" id="shape11">
            <text style="fill:#191919;font-family:Microsoft YaHei;font-size:10.00pt" xml:space="preserve">
                <tspan x="8.0" y="45.5">用户输入一段描述</tspan>
            </text>
        </g>
        <g transform="translate(555.25,151.00)" id="shape12">
            <text style="fill:#191919;font-family:Microsoft YaHei;font-size:10.00pt" xml:space="preserve">
                <tspan x="8.0" y="26.5">这些信息首先会被</tspan>
                <tspan x="8.0" y="45.5">文本编码器转化为</tspan>
                <tspan x="8.0" y="64.5">机器可理解的形式</tspan>
            </text>
        </g>
        <g transform="translate(793.50,151.00)" id="shape13">
            <text style="fill:#191919;font-family:Microsoft YaHei;font-size:10.00pt" xml:space="preserve">
                <tspan x="18.0" y="26.5">接着在"潜在空</tspan>
                <tspan x="8.0" y="45.5">间"模型中, 生成相</tspan>
                <tspan x="15.0" y="64.5">应的"潜在向量"</tspan>
            </text>
        </g>
        <g transform="translate(1032.25,151.00)" id="shape14">
            <text style="fill:#191919;font-family:Microsoft YaHei;font-size:10.00pt" xml:space="preserve">
                <tspan x="6.4" y="36.0">最后解码器将这些"潜在</tspan>
                <tspan x="19.4" y="55.0">向量"转化为图像。</tspan>
            </text>
        </g>
    </g>
</svg>
