<svg xmlns="http://www.w3.org/2000/svg" viewBox="0 0 609.11 144.59"><defs><style>.cls-1{font-size:12px;}.cls-1,.cls-6,.cls-9{fill:#231815;}.cls-1,.cls-2,.cls-9{font-family:MicrosoftYaHeiLight, Microsoft YaHei;}.cls-2{font-size:17.67px;fill:#22ac38;}.cls-3{letter-spacing:-0.09em;}.cls-4{letter-spacing:-0.12em;}.cls-5,.cls-7{fill:none;stroke-miterlimit:10;}.cls-5{stroke:#231815;}.cls-7{stroke:#9dcd82;}.cls-8{fill:#9dcd82;}.cls-9{font-size:14px;}.cls-10{fill:#b5b5b6;}</style></defs><g id="图层_2" data-name="图层 2"><g id="图层_2-2" data-name="图层 2"><text class="cls-1" transform="translate(4.11 141.45)">高维数据</text><text class="cls-1" transform="translate(282.86 141.45)">低维数据</text><text class="cls-2" transform="translate(125.51 15.13)"><tspan class="cls-3">V</tspan><tspan x="9.87" y="0">AE 为 </tspan><tspan class="cls-4" x="59.55" y="0">V</tspan><tspan x="69" y="0">ariational AutoEncoder，变分自编码器</tspan></text><text class="cls-1" transform="translate(556.63 141.45)">高维数据</text><line class="cls-5" x1="209.57" y1="91.96" x2="255.31" y2="91.96"/><polygon class="cls-6" points="262.37 91.96 252.42 96.02 254.78 91.96 252.42 87.89 262.37 91.96"/><line class="cls-5" x1="57.57" y1="91.96" x2="103.31" y2="91.96"/><polygon class="cls-6" points="110.37 91.96 100.42 96.02 102.78 91.96 100.42 87.89 110.37 91.96"/><line class="cls-7" x1="156.77" y1="25.56" x2="156.77" y2="55.3"/><polygon class="cls-8" points="156.77 62.36 152.71 52.41 156.77 54.77 160.84 52.41 156.77 62.36"/><line class="cls-7" x1="451.97" y1="25.56" x2="451.97" y2="55.3"/><polygon class="cls-8" points="451.97 62.36 447.91 52.41 451.97 54.77 456.04 52.41 451.97 62.36"/><line class="cls-5" x1="354.37" y1="91.96" x2="400.11" y2="91.96"/><polygon class="cls-6" points="407.17 91.96 397.22 96.02 399.58 91.96 397.22 87.89 407.17 91.96"/><line class="cls-5" x1="485.57" y1="91.96" x2="531.31" y2="91.96"/><polygon class="cls-6" points="538.37 91.96 528.42 96.02 530.78 91.96 528.42 87.89 538.37 91.96"/><text class="cls-9" transform="translate(136.85 95.93)">编码器</text><rect class="cls-8" x="118.85" y="65.95" width="78" height="51.65" rx="9"/><text class="cls-9" transform="translate(136.85 95.93)">编码器</text><text class="cls-9" transform="translate(18 95.93)">图片</text><rect class="cls-10" y="65.95" width="64" height="51.65" rx="9"/><text class="cls-9" transform="translate(18 95.93)">图片</text><text class="cls-9" transform="translate(563.11 95.93)">图片</text><rect class="cls-10" x="545.11" y="65.95" width="64" height="51.65" rx="9"/><text class="cls-9" transform="translate(563.11 95.93)">图片</text><text class="cls-9" transform="translate(285.69 95.93)">潜空间</text><rect class="cls-10" x="267.69" y="65.95" width="78" height="51.65" rx="9"/><text class="cls-9" transform="translate(285.69 95.93)">潜空间</text><text class="cls-9" transform="translate(433.97 95.93)">解码器</text><rect class="cls-8" x="415.97" y="65.95" width="78" height="51.65" rx="9"/><text class="cls-9" transform="translate(433.97 95.93)">解码器</text></g></g></svg>