<svg xmlns="http://www.w3.org/2000/svg" viewBox="0 0 1091.65 344.2"><defs><style>.cls-1{font-size:12px;}.cls-1,.cls-6,.cls-7{fill:#231815;}.cls-1,.cls-7{font-family:MicrosoftYaHeiLight, Microsoft YaHei;}.cls-2{letter-spacing:-0.17em;}.cls-3{letter-spacing:0em;}.cls-4{letter-spacing:-0.02em;}.cls-5{fill:none;stroke:#231815;stroke-miterlimit:10;}.cls-7{font-size:14px;}.cls-8{fill:#b5b5b6;}</style></defs><g id="图层_2" data-name="图层 2"><g id="图层_2-2" data-name="图层 2"><text class="cls-1" transform="translate(132.68 150.26)">就相当于翻译官,<tspan x="6" y="14.4">能将人类语言,</tspan><tspan x="1.44" y="28.8">翻译成机器语言</tspan></text><text class="cls-1" transform="translate(836.03 150.26)">就相当于翻译官,<tspan x="-6" y="14.4">能将机器图片数据,</tspan><tspan x="-22.56" y="28.8">翻译成人肉眼可见的图片</tspan></text><text class="cls-1" transform="translate(309.76 65.04)">变成<tspan class="cls-2" x="-39.03" y="14.4">T</tspan><tspan x="-34.44" y="14.4">oken embeddings</tspan></text><text class="cls-1" transform="translate(472.77 89.47)">Image info<tspan class="cls-3" x="57.81" y="0">r</tspan><tspan x="62.05" y="0">mation c</tspan><tspan class="cls-4" x="109.13" y="0">r</tspan><tspan x="113.15" y="0">eator 图像信息创建器</tspan></text><line class="cls-5" x1="254" y1="94.26" x2="401.34" y2="95.02"/><polygon class="cls-6" points="408.4 95.06 398.43 99.07 400.81 95.02 398.47 90.94 408.4 95.06"/><line class="cls-5" x1="67.6" y1="95.06" x2="95.34" y2="95.06"/><polygon class="cls-6" points="102.4 95.06 92.45 99.12 94.81 95.06 92.45 90.99 102.4 95.06"/><line class="cls-5" x1="954.55" y1="95.06" x2="977.34" y2="95.06"/><polygon class="cls-6" points="984.4 95.06 974.45 99.12 976.81 95.06 974.45 90.99 984.4 95.06"/><line class="cls-5" x1="760.4" y1="94.26" x2="800.94" y2="94.26"/><polygon class="cls-6" points="808 94.26 798.05 98.32 800.41 94.26 798.05 90.19 808 94.26"/><line class="cls-5" x1="254" y1="256.66" x2="401.34" y2="257.42"/><polygon class="cls-6" points="408.4 257.46 398.43 261.47 400.81 257.42 398.47 253.34 408.4 257.46"/><text class="cls-7" transform="translate(18 98.5)">文本</text><rect class="cls-8" y="68.52" width="64" height="51.65" rx="9"/><text class="cls-7" transform="translate(18 98.5)">文本</text><text class="cls-7" transform="translate(150.6 75.03)"><tspan xml:space="preserve"> CLIP</tspan><tspan class="cls-2" x="32.13" y="0">T</tspan><tspan x="37.48" y="0">ext</tspan><tspan x="-7.01" y="16.8">文本编码器</tspan><tspan x="-25.98" y="33.6">（</tspan><tspan class="cls-2" x="-11.98" y="33.6">T</tspan><tspan x="-6.63" y="33.6">ext Encoder）</tspan></text><rect class="cls-8" x="106.62" y="45.05" width="143.93" height="85.25" rx="9"/><text class="cls-7" transform="translate(150.6 75.03)"><tspan xml:space="preserve"> CLIP</tspan><tspan class="cls-2" x="32.13" y="0">T</tspan><tspan x="37.48" y="0">ext</tspan><tspan x="-7.01" y="16.8">文本编码器</tspan><tspan x="-25.98" y="33.6">（</tspan><tspan class="cls-2" x="-11.98" y="33.6">T</tspan><tspan x="-6.63" y="33.6">ext Encoder）</tspan></text><text class="cls-7" transform="translate(831.23 90.76)">Image Decoder <tspan x="15.92" y="16.8">图像解码器</tspan></text><rect class="cls-8" x="813.23" y="60.78" width="137.85" height="68.45" rx="9"/><text class="cls-7" transform="translate(831.23 90.76)">Image Decoder <tspan x="15.92" y="16.8">图像解码器</tspan></text><text class="cls-7" transform="translate(1003.65 90.76)">人肉眼可见<tspan x="14" y="16.8">的图像</tspan></text><rect class="cls-8" x="985.65" y="60.78" width="106" height="68.45" rx="9"/><text class="cls-7" transform="translate(1003.65 90.76)">人肉眼可见<tspan x="14" y="16.8">的图像</tspan></text><text class="cls-7" transform="translate(192.15 259.49)">噪点图</text><rect class="cls-8" x="174.15" y="229.51" width="78" height="51.65" rx="9"/><text class="cls-7" transform="translate(192.15 259.49)">噪点图</text><rect class="cls-5" x="410.75" y="0.5" width="348" height="343.2"/><text class="cls-7" transform="translate(563.75 40.7)">潜空间</text><rect class="cls-8" x="545.75" y="10.72" width="78" height="51.65" rx="9"/><text class="cls-7" transform="translate(563.75 40.7)">潜空间</text><text class="cls-7" transform="translate(457.22 162.52)"><tspan xml:space="preserve"> U-Net 神经网络</tspan></text><rect class="cls-8" x="439.22" y="132.54" width="138.94" height="51.65" rx="9"/><text class="cls-7" transform="translate(457.22 162.52)"><tspan xml:space="preserve"> U-Net 神经网络</tspan></text><text class="cls-7" transform="translate(636.22 162.52)">调度算法</text><rect class="cls-8" x="618.22" y="132.54" width="92" height="51.65" rx="9"/><text class="cls-7" transform="translate(636.22 162.52)">调度算法</text></g></g></svg>