<svg xmlns="http://www.w3.org/2000/svg" viewBox="0 0 415.51 145.24"><defs><style>.cls-1,.cls-5{fill:#c30d23;}.cls-2,.cls-4,.cls-5{font-size:11px;font-family:MicrosoftYaHei, Microsoft YaHei;}.cls-11,.cls-2,.cls-8{fill:#231815;}.cls-3{letter-spacing:-0.01em;}.cls-10,.cls-4{fill:#fff;}.cls-6{letter-spacing:0.01em;}.cls-7,.cls-9{fill:none;}.cls-10,.cls-7,.cls-9{stroke:#231815;stroke-miterlimit:10;}.cls-7{stroke-width:0.45px;}.cls-11{font-size:4.58px;font-family:MicrosoftYaHeiLight, Microsoft YaHei;}</style></defs><title>资源 5</title><g id="图层_2" data-name="图层 2"><g id="图层_1-2" data-name="图层 1"><rect class="cls-1" x="178" y="76.35" width="104.67" height="16.67"/><text class="cls-2" transform="translate(190.44 9.43)">mas<tspan class="cls-3" x="21.48" y="0">t</tspan><tspan x="25.49" y="0">er (主分支)</tspan></text><text class="cls-4" transform="translate(205.1 88.1)">dev 分支</text><text class="cls-5" transform="translate(189.44 142.43)">H<tspan class="cls-6" x="8.51" y="0">E</tspan><tspan x="14.61" y="0">AD (H</tspan><tspan class="cls-6" x="46.17" y="0">E</tspan><tspan x="52.28" y="0">AD的指向决定了谁是”当前分支”)</tspan></text><line class="cls-7" x1="228.25" y1="123.35" x2="228.25" y2="100.54"/><polygon class="cls-8" points="228.25 97.35 230.08 101.84 228.25 100.78 226.41 101.84 228.25 97.35"/><line class="cls-7" x1="228.25" y1="10.53" x2="228.25" y2="23.83"/><polygon class="cls-8" points="228.25 27.02 226.41 22.52 228.25 23.59 230.08 22.52 228.25 27.02"/><line class="cls-7" x1="228.25" y1="77.68" x2="228.25" y2="64.39"/><polygon class="cls-8" points="228.25 61.2 230.08 65.69 228.25 64.63 226.41 65.69 228.25 61.2"/><line class="cls-9" y1="42.35" x2="225" y2="42.35"/><circle class="cls-10" cx="76.76" cy="41.35" r="11"/><circle class="cls-10" cx="150.99" cy="41.35" r="11"/><circle class="cls-10" cx="225.02" cy="41.35" r="11"/><text class="cls-11" transform="translate(68.97 40.9)">commit<tspan x="6.91" y="6.11">1</tspan></text><text class="cls-11" transform="translate(143.2 40.9)">commit<tspan x="6.52" y="6.11">2</tspan></text><text class="cls-11" transform="translate(217.23 40.9)">commit<tspan x="6.52" y="6.11">3</tspan></text></g></g></svg>