<svg xmlns="http://www.w3.org/2000/svg" viewBox="0 0 475.82 173.65"><defs><style>.cls-1,.cls-4{fill:#c30d23;}.cls-2,.cls-4,.cls-8{font-size:11px;font-family:MicrosoftYaHei, Microsoft YaHei;}.cls-10,.cls-2{fill:#fff;}.cls-3{letter-spacing:-0.01em;}.cls-5{letter-spacing:0.01em;}.cls-6,.cls-9{fill:none;}.cls-10,.cls-6,.cls-9{stroke:#231815;stroke-miterlimit:10;}.cls-6{stroke-width:0.45px;}.cls-11,.cls-7,.cls-8{fill:#231815;}.cls-11{font-size:4.58px;font-family:MicrosoftYaHeiLight, Microsoft YaHei;}</style></defs><title>资源 8</title><g id="图层_2" data-name="图层 2"><g id="图层_1-2" data-name="图层 1"><rect class="cls-1" x="238.31" y="54.68" width="104.67" height="16.67"/><text class="cls-2" transform="translate(250.75 66.43)">mas<tspan class="cls-3" x="21.48" y="0">t</tspan><tspan x="25.49" y="0">er (主分支)</tspan></text><text class="cls-4" transform="translate(249.75 9.43)">H<tspan class="cls-5" x="8.51" y="0">E</tspan><tspan x="14.61" y="0">AD (H</tspan><tspan class="cls-5" x="46.17" y="0">E</tspan><tspan x="52.28" y="0">AD的指向决定了谁是”当前分支”)</tspan></text><line class="cls-6" x1="288.56" y1="12.2" x2="288.56" y2="50.34"/><polygon class="cls-7" points="288.56 53.53 286.73 49.04 288.56 50.1 290.4 49.04 288.56 53.53"/><line class="cls-6" x1="288.56" y1="71.22" x2="288.56" y2="84.51"/><polygon class="cls-7" points="288.56 87.7 286.73 83.21 288.56 84.27 290.4 83.21 288.56 87.7"/><text class="cls-8" transform="translate(265.27 151.45)">dev 分支</text><line class="cls-6" x1="288.41" y1="141.04" x2="288.41" y2="127.74"/><polygon class="cls-7" points="288.41 124.55 290.25 129.04 288.41 127.98 286.58 129.04 288.41 124.55"/><line class="cls-9" y1="105.7" x2="277" y2="105.7"/><circle class="cls-10" cx="76.76" cy="104.7" r="11"/><circle class="cls-10" cx="150.99" cy="104.7" r="11"/><text class="cls-11" transform="translate(68.97 104.25)">commit<tspan x="6.91" y="6.11">1</tspan></text><text class="cls-11" transform="translate(143.2 104.25)">commit<tspan x="6.52" y="6.11">2</tspan></text><circle class="cls-10" cx="225.02" cy="104.7" r="11"/><text class="cls-11" transform="translate(217.23 104.25)">commit<tspan x="6.52" y="6.11">3</tspan></text><circle class="cls-10" cx="288.52" cy="104.7" r="11"/><text class="cls-11" transform="translate(280.73 104.25)">commit<tspan x="6.48" y="6.11">4</tspan></text><line class="cls-9" x1="261" y1="123.29" x2="311" y2="173.29"/><line class="cls-9" x1="261" y1="173.29" x2="311" y2="123.29"/></g></g></svg>