<svg xmlns="http://www.w3.org/2000/svg" viewBox="0 0 432.9 254.28"><defs><style>.cls-1,.cls-5{font-size:9.49px;}.cls-1,.cls-12,.cls-3,.cls-7{fill:#231815;}.cls-1,.cls-11,.cls-12,.cls-5{font-family:MicrosoftYaHei, Microsoft YaHei;}.cls-2{letter-spacing:0.02em;}.cls-11,.cls-12,.cls-3{font-size:12px;}.cls-3{font-family:AdobeSongStd-Light-GBpc-EUC-H, Adobe Song Std;}.cls-4,.cls-6,.cls-8{fill:none;stroke:#231815;stroke-miterlimit:10;}.cls-4{stroke-width:0.55px;}.cls-5{fill:#c30d23;}.cls-6,.cls-8{stroke-width:0.45px;}.cls-8{stroke-dasharray:2.02 2.02;}.cls-9{letter-spacing:-0.01em;}.cls-10{letter-spacing:0em;}.cls-11{fill:#fff;}</style></defs><title>资源 2</title><g id="图层_2" data-name="图层 2"><g id="图层_1-2" data-name="图层 1"><text class="cls-1" transform="translate(39.81 16.78)">目录 (工作区)</text><text class="cls-1" transform="translate(39.81 52.47)">t1.<tspan class="cls-2" x="11.38" y="0">t</tspan><tspan x="15.06" y="0">xt</tspan></text><text class="cls-3" transform="translate(39.81 91.99)">第5次修改</text><text class="cls-3" transform="translate(170.76 91.99)">第5次修改</text><text class="cls-3" transform="translate(298.89 91.99)">第5次修改</text><rect class="cls-4" x="28.17" y="0.28" width="81.31" height="163.59"/><text class="cls-1" transform="translate(167.58 16.78)">stage / index<tspan x="0" y="12.65">暂存区</tspan></text><rect class="cls-4" x="155.94" y="0.28" width="81.31" height="163.59"/><text class="cls-5" transform="translate(114.26 102.58)">git add</text><line class="cls-6" x1="97.61" y1="86.8" x2="150.13" y2="86.8"/><polygon class="cls-7" points="153.32 86.8 148.82 88.64 149.89 86.8 148.82 84.97 153.32 86.8"/><line class="cls-6" x1="261.68" y1="160.01" x2="261.68" y2="161.01"/><line class="cls-8" x1="261.68" y1="163.03" x2="261.68" y2="210.52"/><line class="cls-6" x1="261.68" y1="211.53" x2="261.68" y2="212.53"/><polygon class="cls-7" points="261.68 215.72 259.85 211.22 261.68 212.29 263.52 211.22 261.68 215.72"/><text class="cls-1" transform="translate(295.01 16.78)">mas<tspan class="cls-9" x="18.52" y="0">t</tspan><tspan class="cls-10" x="21.98" y="0">er 分支</tspan></text><rect class="cls-4" x="283.37" y="0.28" width="81.31" height="163.59"/><text class="cls-5" transform="translate(241.69 150.04)">git commit</text><line class="cls-6" x1="238.22" y1="134.26" x2="280.18" y2="134.26"/><polygon class="cls-7" points="283.37 134.26 278.87 136.09 279.94 134.26 278.87 132.42 283.37 134.26"/><line class="cls-6" x1="54.01" y1="56.37" x2="54.01" y2="73.85"/><polygon class="cls-7" points="54.01 77.04 52.18 72.54 54.01 73.61 55.85 72.54 54.01 77.04"/><text class="cls-3" transform="translate(39.81 136.81)">第6次修改</text><line class="cls-6" x1="54.01" y1="101.19" x2="54.01" y2="118.67"/><polygon class="cls-7" points="54.01 121.86 52.18 117.36 54.01 118.43 55.85 117.36 54.01 121.86"/><circle class="cls-7" cx="10.95" cy="86.53" r="10.95"/><text class="cls-11" transform="translate(7.43 90.15)">1</text><circle class="cls-7" cx="10.95" cy="131.35" r="10.95"/><text class="cls-11" transform="translate(7.43 134.97)">3</text><circle class="cls-7" cx="258.78" cy="119.05" r="10.95"/><text class="cls-11" transform="translate(255.26 122.66)">4</text><circle class="cls-7" cx="129.59" cy="68.08" r="10.95"/><text class="cls-11" transform="translate(126.07 71.69)">2</text><text class="cls-12" transform="translate(171.77 236.81)">git commit 只会对”暂存区”里的东西进行提交,<tspan x="0" y="14.4">即, git commit 是不会去管工作区中的文件的!</tspan></text></g></g></svg>