<svg xmlns="http://www.w3.org/2000/svg" viewBox="0 0 415.51 147.91"><defs><style>.cls-1,.cls-5{fill:#c30d23;}.cls-2,.cls-4,.cls-5{font-size:11px;font-family:MicrosoftYaHei, Microsoft YaHei;}.cls-10,.cls-2{fill:#fff;}.cls-3{letter-spacing:-0.01em;}.cls-11,.cls-4,.cls-8{fill:#231815;}.cls-6{letter-spacing:0.01em;}.cls-7,.cls-9{fill:none;}.cls-10,.cls-7,.cls-9{stroke:#231815;stroke-miterlimit:10;}.cls-7{stroke-width:0.45px;}.cls-11{font-size:4.58px;font-family:MicrosoftYaHeiLight, Microsoft YaHei;}</style></defs><title>资源 4</title><g id="图层_2" data-name="图层 2"><g id="图层_1-2" data-name="图层 1"><rect class="cls-1" x="178" y="54.68" width="104.67" height="16.67"/><text class="cls-2" transform="translate(190.44 66.43)">mas<tspan class="cls-3" x="21.48" y="0">t</tspan><tspan x="25.49" y="0">er (主分支)</tspan></text><text class="cls-4" transform="translate(205.1 145.1)">dev 分支</text><text class="cls-5" transform="translate(189.44 9.43)">H<tspan class="cls-6" x="8.51" y="0">E</tspan><tspan x="14.61" y="0">AD (H</tspan><tspan class="cls-6" x="46.17" y="0">E</tspan><tspan x="52.28" y="0">AD的指向决定了谁是”当前分支”)</tspan></text><line class="cls-7" x1="228.25" y1="12.2" x2="228.25" y2="50.34"/><polygon class="cls-8" points="228.25 53.53 226.41 49.04 228.25 50.1 230.08 49.04 228.25 53.53"/><line class="cls-7" x1="228.25" y1="67.53" x2="228.25" y2="80.83"/><polygon class="cls-8" points="228.25 84.02 226.41 79.52 228.25 80.59 230.08 79.52 228.25 84.02"/><line class="cls-7" x1="228.25" y1="134.68" x2="228.25" y2="121.39"/><polygon class="cls-8" points="228.25 118.2 230.08 122.69 228.25 121.63 226.41 122.69 228.25 118.2"/><line class="cls-9" y1="99.35" x2="225" y2="99.35"/><circle class="cls-10" cx="76.76" cy="98.35" r="11"/><circle class="cls-10" cx="150.99" cy="98.35" r="11"/><circle class="cls-10" cx="225.02" cy="98.35" r="11"/><text class="cls-11" transform="translate(68.97 97.9)">commit<tspan x="6.91" y="6.11">1</tspan></text><text class="cls-11" transform="translate(143.2 97.9)">commit<tspan x="6.52" y="6.11">2</tspan></text><text class="cls-11" transform="translate(217.23 97.9)">commit<tspan x="6.52" y="6.11">3</tspan></text></g></g></svg>