<svg xmlns="http://www.w3.org/2000/svg" viewBox="0 0 554.97 212.91"><defs><style>.cls-1,.cls-11,.cls-2{fill:none;}.cls-1,.cls-11,.cls-13{stroke:#231815;}.cls-1,.cls-11,.cls-13,.cls-2{stroke-miterlimit:10;}.cls-2{stroke:#9fa0a0;}.cls-3,.cls-9{fill:#c30d23;}.cls-4,.cls-6,.cls-7,.cls-9{font-size:11px;font-family:MicrosoftYaHei, Microsoft YaHei;}.cls-13,.cls-4{fill:#fff;}.cls-5{letter-spacing:-0.01em;}.cls-12,.cls-14,.cls-6{fill:#231815;}.cls-7{fill:#601986;}.cls-8{letter-spacing:0.02em;}.cls-10{letter-spacing:0.01em;}.cls-11{stroke-width:0.45px;}.cls-14{font-size:4.58px;font-family:MicrosoftYaHeiLight, Microsoft YaHei;}</style></defs><title>资源 28</title><g id="图层_2" data-name="图层 2"><g id="图层_1-2" data-name="图层 1"><line class="cls-1" x1="234" y1="98.35" x2="325" y2="98.35"/><line class="cls-1" x1="150.99" y1="129.02" x2="216.67" y2="158.68"/><line class="cls-2" x1="234.67" y1="159.35" x2="326.67" y2="106.02"/><line class="cls-1" x1="150.99" y1="130.02" x2="216.67" y2="100.35"/><rect class="cls-3" x="279.67" y="54.68" width="104.67" height="16.67"/><text class="cls-4" transform="translate(292.1 66.43)">mas<tspan class="cls-5" x="21.48" y="0">t</tspan><tspan x="25.49" y="0">er (主分支)</tspan></text><text class="cls-6" transform="translate(205.1 210.1)">dev 分支</text><text class="cls-7" transform="translate(243.1 168.1)">提交了t3.<tspan class="cls-8" x="46.2" y="0">t</tspan><tspan x="50.46" y="0">xt</tspan></text><text class="cls-6" transform="translate(125.47 155.77)">只有t2.<tspan class="cls-8" x="35.2" y="0">t</tspan><tspan x="39.46" y="0">xt</tspan></text><text class="cls-9" transform="translate(291.1 9.43)">H<tspan class="cls-10" x="8.51" y="0">E</tspan><tspan x="14.61" y="0">AD (H</tspan><tspan class="cls-10" x="46.17" y="0">E</tspan><tspan x="52.28" y="0">AD的指向决定了谁是”当前分支”)</tspan></text><line class="cls-11" x1="329.91" y1="12.2" x2="329.91" y2="50.34"/><polygon class="cls-12" points="329.91 53.53 328.08 49.04 329.91 50.1 331.75 49.04 329.91 53.53"/><line class="cls-11" x1="329.91" y1="67.53" x2="329.91" y2="80.83"/><polygon class="cls-12" points="329.91 84.02 328.08 79.52 329.91 80.59 331.75 79.52 329.91 84.02"/><line class="cls-11" x1="228.25" y1="199.68" x2="228.25" y2="186.39"/><polygon class="cls-12" points="228.25 183.2 230.08 187.69 228.25 186.63 226.41 187.69 228.25 183.2"/><line class="cls-1" y1="129.02" x2="150.99" y2="129.02"/><circle class="cls-13" cx="76.76" cy="128.02" r="11"/><circle class="cls-13" cx="150.99" cy="128.02" r="11"/><text class="cls-14" transform="translate(68.97 127.57)">commit<tspan x="6.91" y="6.11">1</tspan></text><text class="cls-14" transform="translate(143.2 127.57)">commit<tspan x="6.52" y="6.11">2</tspan></text><circle class="cls-13" cx="225.02" cy="163.35" r="11"/><text class="cls-14" transform="translate(217.23 162.9)">commit<tspan x="6.52" y="6.11">3</tspan></text><text class="cls-7" transform="translate(199.1 79.1)">提交了t3.<tspan class="cls-8" x="46.2" y="0">t</tspan><tspan x="50.46" y="0">xt</tspan></text><text class="cls-7" transform="translate(348.77 97.43)">强行手动修改t3.<tspan class="cls-8" x="79.2" y="0">t</tspan><tspan x="83.46" y="0">xt为你想要的内容, </tspan><tspan x="0" y="12.65">再 add, commit</tspan><tspan x="0" y="25.3">帮助git解除到底用哪个版本的t3.</tspan><tspan class="cls-8" x="159.26" y="25.3">t</tspan><tspan x="163.52" y="25.3">xt的疑惑</tspan></text><circle class="cls-13" cx="225.02" cy="99.35" r="11"/><text class="cls-14" transform="translate(217.23 98.9)">commit<tspan x="6.52" y="6.11">3</tspan></text><circle class="cls-13" cx="329" cy="99.35" r="11"/><text class="cls-14" transform="translate(321.21 98.9)">commit<tspan x="6.48" y="6.11">4</tspan></text></g></g></svg>