<svg xmlns="http://www.w3.org/2000/svg" viewBox="0 0 418.87 211.24"><defs><style>.cls-1,.cls-10{fill:none;}.cls-1,.cls-10,.cls-12{stroke:#231815;stroke-miterlimit:10;}.cls-2,.cls-8{fill:#c30d23;}.cls-3,.cls-5,.cls-6,.cls-8{font-size:11px;font-family:MicrosoftYaHei, Microsoft YaHei;}.cls-12,.cls-3{fill:#fff;}.cls-4{letter-spacing:-0.01em;}.cls-11,.cls-13,.cls-14,.cls-5{fill:#231815;}.cls-6{fill:#601986;}.cls-7{letter-spacing:0.02em;}.cls-9{letter-spacing:0.01em;}.cls-10{stroke-width:0.45px;}.cls-13{font-size:4.58px;font-family:MicrosoftYaHeiLight, Microsoft YaHei;}.cls-14{font-size:67px;font-family:AdobeSongStd-Light-GBpc-EUC-H, Adobe Song Std;}</style></defs><title>资源 26</title><g id="图层_2" data-name="图层 2"><g id="图层_1-2" data-name="图层 1"><line class="cls-1" x1="150.99" y1="127.35" x2="216.67" y2="157.02"/><line class="cls-1" x1="150.99" y1="128.35" x2="216.67" y2="98.68"/><rect class="cls-2" x="174.67" y="54.68" width="104.67" height="16.67"/><text class="cls-3" transform="translate(187.1 66.43)">mas<tspan class="cls-4" x="21.48" y="0">t</tspan><tspan x="25.49" y="0">er (主分支)</tspan></text><text class="cls-5" transform="translate(205.1 208.43)">dev 分支</text><text class="cls-6" transform="translate(243.1 166.43)">提交了t3.<tspan class="cls-7" x="46.2" y="0">t</tspan><tspan x="50.46" y="0">xt</tspan></text><text class="cls-5" transform="translate(125.47 154.1)">只有t2.<tspan class="cls-7" x="35.2" y="0">t</tspan><tspan x="39.46" y="0">xt</tspan></text><text class="cls-8" transform="translate(186.1 9.43)">H<tspan class="cls-9" x="8.51" y="0">E</tspan><tspan x="14.61" y="0">AD (H</tspan><tspan class="cls-9" x="46.17" y="0">E</tspan><tspan x="52.28" y="0">AD的指向决定了谁是”当前分支”)</tspan></text><line class="cls-10" x1="224.91" y1="12.2" x2="224.91" y2="50.34"/><polygon class="cls-11" points="224.91 53.53 223.08 49.04 224.91 50.1 226.75 49.04 224.91 53.53"/><line class="cls-10" x1="224.91" y1="67.53" x2="224.91" y2="80.83"/><polygon class="cls-11" points="224.91 84.02 223.08 79.52 224.91 80.59 226.75 79.52 224.91 84.02"/><line class="cls-10" x1="228.25" y1="198.02" x2="228.25" y2="184.72"/><polygon class="cls-11" points="228.25 181.53 230.08 186.03 228.25 184.96 226.41 186.03 228.25 181.53"/><line class="cls-1" y1="127.35" x2="150.99" y2="127.35"/><circle class="cls-12" cx="76.76" cy="126.35" r="11"/><circle class="cls-12" cx="150.99" cy="126.35" r="11"/><text class="cls-13" transform="translate(68.97 125.9)">commit<tspan x="6.91" y="6.11">1</tspan></text><text class="cls-13" transform="translate(143.2 125.9)">commit<tspan x="6.52" y="6.11">2</tspan></text><circle class="cls-12" cx="225.02" cy="161.68" r="11"/><text class="cls-13" transform="translate(217.23 161.24)">commit<tspan x="6.52" y="6.11">3</tspan></text><text class="cls-6" transform="translate(243.1 102.43)">提交了t3.<tspan class="cls-7" x="46.2" y="0">t</tspan><tspan x="50.46" y="0">xt</tspan></text><text class="cls-5" transform="translate(338.44 126.43)">这两个t3.<tspan class="cls-7" x="46.2" y="0">t</tspan><tspan x="50.46" y="0">xt</tspan><tspan x="0" y="12.65">文件的内容不同!</tspan></text><circle class="cls-12" cx="225.02" cy="97.68" r="11"/><text class="cls-13" transform="translate(217.23 97.24)">commit<tspan x="6.52" y="6.11">3</tspan></text><text class="cls-14" transform="translate(309.83 147.56)">}</text></g></g></svg>