<svg xmlns="http://www.w3.org/2000/svg" viewBox="0 0 284.85 245.09"><defs><style>.cls-1{fill:#fff100;}.cls-19,.cls-2,.cls-26,.cls-6{font-size:9px;}.cls-17,.cls-2,.cls-26,.cls-33{fill:#094;}.cls-10,.cls-11,.cls-12,.cls-13,.cls-14,.cls-15,.cls-16,.cls-17,.cls-19,.cls-2,.cls-26{font-family:MicrosoftYaHei-Bold, Microsoft YaHei;}.cls-10,.cls-11,.cls-12,.cls-13,.cls-14,.cls-15,.cls-16,.cls-17,.cls-2,.cls-20,.cls-21,.cls-22,.cls-27,.cls-28{font-weight:700;}.cls-13,.cls-20,.cls-3{letter-spacing:-0.01em;}.cls-15,.cls-22,.cls-4{letter-spacing:0.01em;}.cls-30,.cls-32,.cls-5{fill:none;stroke-miterlimit:10;}.cls-5{stroke:#231815;stroke-width:0.25px;}.cls-23,.cls-24,.cls-25,.cls-29,.cls-6{fill:#231815;font-family:MicrosoftYaHeiLight, Microsoft YaHei;}.cls-29,.cls-7{letter-spacing:0.01em;}.cls-24,.cls-8{letter-spacing:-0.1em;}.cls-25,.cls-9{letter-spacing:-0.02em;}.cls-11{letter-spacing:-0.06em;}.cls-12{letter-spacing:-0.03em;}.cls-13,.cls-14,.cls-15,.cls-19,.cls-31{fill:#c30d23;}.cls-16,.cls-28{letter-spacing:-0.02em;}.cls-18{letter-spacing:-0.14em;}.cls-27{letter-spacing:0em;}.cls-30{stroke:#c30d23;}.cls-30,.cls-32{stroke-width:0.5px;}.cls-32{stroke:#094;}</style></defs><title>资源 3</title><g id="图层_2" data-name="图层 2"><g id="图层_2-2" data-name="图层 2"><rect class="cls-1" x="40.13" y="94.96" width="108.5" height="13"/><text class="cls-2" transform="translate(133.63 122.96)">把要传递给下一个<tspan class="cls-3" x="72" y="0">p</tspan><tspan x="77.89" y="0">a</tspan><tspan class="cls-4" x="83.09" y="0">r</tspan><tspan x="86.95" y="0">se()方法的数据,</tspan><tspan x="0" y="14">挂载在meta字典上!</tspan></text><rect class="cls-5" x="0.13" y="0.13" width="204.5" height="145.84"/><text class="cls-6" transform="translate(11.13 17.46)">pa<tspan class="cls-7" x="10.25" y="0">r</tspan><tspan x="13.55" y="0">se(sel</tspan><tspan class="cls-8" x="35.66" y="0">f</tspan><tspan x="37.4" y="0">, </tspan><tspan class="cls-9" x="42.22" y="0">r</tspan><tspan x="45.24" y="0">esponse)</tspan></text><text class="cls-6" transform="translate(35.13 48.96)"># 返回 scrapy原生的新的url <tspan class="cls-9" x="113.22" y="0">r</tspan><tspan x="116.23" y="0">equest请求</tspan><tspan x="0" y="14">yield </tspan><tspan class="cls-10" x="21.41" y="14">scrap</tspan><tspan class="cls-11" x="45.51" y="14">y</tspan><tspan class="cls-10" x="50.13" y="14">.</tspan><tspan class="cls-12" x="52.7" y="14">R</tspan><tspan class="cls-10" x="58.74" y="14">eques</tspan><tspan x="85.47" y="14">t(</tspan><tspan x="0" y="28" xml:space="preserve">    url = 下一页的url地址</tspan><tspan x="0" y="42" xml:space="preserve">    callback = sel</tspan><tspan class="cls-8" x="64.96" y="42">f</tspan><tspan x="66.7" y="42">.</tspan><tspan class="cls-13" x="68.86" y="42">p</tspan><tspan class="cls-14" x="74.75" y="42">a</tspan><tspan class="cls-15" x="79.95" y="42">r</tspan><tspan class="cls-14" x="83.82" y="42">se2</tspan><tspan x="99.05" y="42" xml:space="preserve"> # 回调函数</tspan><tspan x="0" y="56" xml:space="preserve">    </tspan><tspan class="cls-10" x="10.65" y="56">meta = {’</tspan><tspan class="cls-16" x="58.37" y="56">k</tspan><tspan class="cls-10" x="63.6" y="56">ey’: </tspan><tspan class="cls-17" x="88.26" y="56">msg</tspan><tspan class="cls-10" x="107.52" y="56">} </tspan><tspan x="113.7" y="56"># 是个dict</tspan><tspan x="0" y="70" xml:space="preserve">    dont_filter=</tspan><tspan class="cls-18" x="57.67" y="70">T</tspan><tspan x="61.35" y="70" xml:space="preserve">rue    </tspan><tspan x="0" y="84">)</tspan></text><rect class="cls-5" x="0.13" y="172.13" width="259" height="72.84"/><text class="cls-19" transform="translate(11.13 189.46)"><tspan class="cls-20">p</tspan><tspan class="cls-21" x="5.89" y="0">a</tspan><tspan class="cls-22" x="11.09" y="0">r</tspan><tspan class="cls-21" x="14.95" y="0">se2</tspan><tspan class="cls-23" x="30.19" y="0">(sel</tspan><tspan class="cls-24" x="43.61" y="0">f</tspan><tspan class="cls-23" x="45.35" y="0">, </tspan><tspan class="cls-25" x="50.17" y="0">r</tspan><tspan class="cls-23" x="53.19" y="0">esponse)</tspan></text><text class="cls-26" transform="translate(35.13 220.96)"><tspan class="cls-27">r</tspan><tspan class="cls-21" x="3.77" y="0">esponse.meta[’</tspan><tspan class="cls-28" x="78.95" y="0">k</tspan><tspan class="cls-21" x="84.18" y="0">ey’] </tspan><tspan class="cls-23" x="109.77" y="0">=&gt; 拿到从pa</tspan><tspan class="cls-29" x="162.31" y="0">r</tspan><tspan class="cls-23" x="165.62" y="0">se()方法中</tspan><tspan class="cls-23"><tspan x="0" y="14" xml:space="preserve">                                               传递过来的msg数据</tspan></tspan></text><polyline class="cls-30" points="41.63 86.96 15.63 86.96 15.63 176.43"/><polygon class="cls-31" points="15.63 179.96 13.59 174.99 15.63 176.17 17.66 174.99 15.63 179.96"/><line class="cls-32" x1="129.12" y1="109.96" x2="129.12" y2="206.93"/><polygon class="cls-33" points="129.13 210.46 127.09 205.49 129.13 206.67 131.16 205.49 129.13 210.46"/></g></g></svg>