<svg xmlns="http://www.w3.org/2000/svg" viewBox="0 0 625.63 323.56"><defs><style>.cls-1{fill:#dcdddd;}.cls-10,.cls-17,.cls-19,.cls-2{font-size:9px;}.cls-10,.cls-2,.cls-23{fill:#231815;}.cls-2{font-family:MicrosoftYaHeiLight, Microsoft YaHei;}.cls-3{letter-spacing:-0.02em;}.cls-4{letter-spacing:-0.1em;}.cls-11,.cls-17,.cls-5,.cls-6{fill:#c30d23;}.cls-10,.cls-12,.cls-17,.cls-19,.cls-24,.cls-5,.cls-6,.cls-8,.cls-9{font-family:MicrosoftYaHei-Bold, Microsoft YaHei;font-weight:700;}.cls-18,.cls-6{letter-spacing:0em;}.cls-7{letter-spacing:0.01em;}.cls-13,.cls-14,.cls-19,.cls-8,.cls-9{fill:#094;}.cls-20,.cls-8{letter-spacing:0em;}.cls-14{letter-spacing:-0.03em;}.cls-15{letter-spacing:-0.14em;}.cls-16,.cls-25,.cls-26{fill:none;stroke-miterlimit:10;}.cls-16,.cls-25{stroke:#231815;}.cls-16{stroke-width:0.25px;}.cls-21{letter-spacing:-0.01em;}.cls-22{letter-spacing:0.01em;}.cls-24{font-size:12.43px;fill:#fff;}.cls-25{stroke-width:0.5px;}.cls-26{stroke:#094;}</style></defs><title>资源 1</title><g id="图层_2" data-name="图层 2"><g id="图层_2-2" data-name="图层 2"><rect class="cls-1" x="121.5" y="93.37" width="182.5" height="63.34"/><rect class="cls-1" x="121.5" y="171.7" width="182.5" height="99.5"/><text class="cls-2" transform="translate(68 7.7)">爬虫文件</text><text class="cls-2" transform="translate(82 39.7)">classs 爬虫类</text><text class="cls-2" transform="translate(419 165.2)">classs 管道类</text><text class="cls-2" transform="translate(449 206.2)">p<tspan class="cls-3" x="5.44" y="0">r</tspan><tspan x="8.46" y="0">ocess_item(sel</tspan><tspan class="cls-4" x="65.92" y="0">f</tspan><tspan x="67.67" y="0">, </tspan><tspan class="cls-5" x="72.49" y="0">i</tspan><tspan class="cls-6" x="75.15" y="0">t</tspan><tspan class="cls-5" x="78.84" y="0">em</tspan><tspan x="92.91" y="0">, spider) 方法</tspan></text><text class="cls-2" transform="translate(480.5 234.2)">把 item 存到文件中或数据库中</text><text class="cls-2" transform="translate(105 84.7)">pa<tspan class="cls-7" x="10.25" y="0">r</tspan><tspan x="13.55" y="0">se(sel</tspan><tspan class="cls-4" x="35.66" y="0">f</tspan><tspan x="37.4" y="0">, </tspan><tspan class="cls-8" x="42.22" y="0">r</tspan><tspan class="cls-9" x="45.99" y="0">esponse</tspan><tspan x="83.1" y="0">)方法</tspan></text><text class="cls-2" transform="translate(132.5 106.2)"><tspan class="cls-3">r</tspan><tspan x="3.01" y="0">esponse.css() =&gt; 拿到提取的数据</tspan></text><text class="cls-2" transform="translate(132.5 184.2)">提取出下一页的url地址</text><text class="cls-10" transform="translate(159.5 132.2)">把提取到的数据, 挂靠在一个dict上<tspan x="0" y="14">yield 这个</tspan><tspan class="cls-11" x="42.39" y="14">dict</tspan></text><text class="cls-2" transform="translate(132.5 209.2)"># 抛出对”下一页”的<tspan class="cls-3" x="78.05" y="0">r</tspan><tspan x="81.06" y="0">equest请求对象</tspan><tspan class="cls-12"><tspan x="0" y="14">yield </tspan><tspan class="cls-13" x="24.39" y="14">Splash</tspan><tspan class="cls-14" x="53.92" y="14">R</tspan><tspan class="cls-13" x="59.95" y="14">equest</tspan><tspan x="90.41" y="14">(</tspan><tspan class="cls-13" x="93.92" y="14">nextUrl</tspan><tspan x="127.45" y="14">,</tspan></tspan><tspan x="0" y="28" xml:space="preserve">                    callback=sel</tspan><tspan class="cls-4" x="102.24" y="28">f</tspan><tspan x="103.99" y="28">.pa</tspan><tspan class="cls-7" x="116.39" y="28">r</tspan><tspan x="119.7" y="28">se, # 回调函数</tspan><tspan x="0" y="42" xml:space="preserve">                    a</tspan><tspan class="cls-3" x="58.06" y="42">r</tspan><tspan x="61.08" y="42">gs={&apos;wait&apos;: 0.5},</tspan><tspan x="0" y="56" xml:space="preserve">                    dont_filter=</tspan><tspan class="cls-15" x="100.27" y="56">T</tspan><tspan x="103.96" y="56">rue)</tspan></text><rect class="cls-16" x="68" y="20.29" width="277.5" height="298.91"/><text class="cls-2" transform="translate(400.5 133.2)">管道文件</text><text class="cls-17" transform="translate(419 57.7)">爬虫所 yield 的提取到的数据, <tspan x="0" y="14">会被”返回”给管道文件中的 i</tspan><tspan class="cls-18" x="122.34" y="14">t</tspan><tspan x="126.03" y="14">em 参数</tspan></text><text class="cls-19" transform="translate(0 265.2)">爬虫将下一页的地址, <tspan x="0" y="14">封装成</tspan><tspan class="cls-20" x="27" y="14">r</tspan><tspan x="30.77" y="14">equests对象后, </tspan><tspan x="0" y="28">其返回的</tspan><tspan class="cls-20" x="36" y="28">r</tspan><tspan x="39.77" y="28">esponse对象, </tspan><tspan x="0" y="42">会自动传入到其call</tspan><tspan class="cls-21" x="78.17" y="42">b</tspan><tspan x="84.06" y="42">ack回调函数所指定的</tspan><tspan class="cls-21" x="171.28" y="42">p</tspan><tspan x="177.17" y="42">a</tspan><tspan class="cls-22" x="182.36" y="42">r</tspan><tspan x="186.23" y="42">se()方法中</tspan></text><rect class="cls-16" x="400.5" y="145.79" width="225" height="135.91"/><rect class="cls-16" x="97" y="66.87" width="216.5" height="224.84"/><rect class="cls-16" x="430.5" y="192.37" width="185.5" height="70.34"/></g><g id="图层_1-2" data-name="图层 1"><rect class="cls-23" x="385.33" y="48.04" width="25.33" height="25.33" rx="12" ry="12"/><text class="cls-24" transform="translate(394.17 65.12)">1</text><rect class="cls-23" x="36.33" y="214.04" width="25.33" height="25.33" rx="12" ry="12"/><text class="cls-24" transform="translate(45.17 231.12)">2</text><path class="cls-25" d="M225.5,143.2c76.6,14.89,120.38-.36,146.5-18,25-16.87,35.39-37,65.5-42,24.66-4.08,59.15,2.55,81.5,30,25.09,30.82,18.34,67.56,15.16,79.6"/><path class="cls-23" d="M534.34,191.92l2-.57,0,.07-1.92,2.51c-.49.93-1,1.85-1.48,2.77l.18-3.13-.33-3.15,0,0Z"/><polyline class="cls-26" points="168 229.2 168 248.2 28.5 248.2 28.5 54.2 166.5 54.2 166.5 67.14"/><polygon class="cls-13" points="166.5 74.2 162.44 64.25 166.5 66.62 170.56 64.25 166.5 74.2"/></g></g></svg>