<svg xmlns="http://www.w3.org/2000/svg" width="432" height="361" xmlns:xlink="http://www.w3.org/1999/xlink" viewBox="0 0 432 361">
    <defs/>
    <g transform="translate(-333.00,-150.00)">
        <path fill="#ebebeb" d="M280.0,132.0L280.0,.0L.0,.0L.0,132.0L280.0,132.0z" fill-rule="nonzero" transform="translate(334.00,293.00)" id="shape1"/>
        <path fill="#ebebeb" d="M233.0,106.0L233.0,.0L.0,.0L.0,106.0L233.0,106.0z" fill-rule="nonzero" transform="translate(334.00,151.00)" id="shape2"/>
        <g transform="translate(340.00,172.00)" id="shape3">
            <path fill="#ffffff" d="M.0,.0L142.0,.0L142.0,28.0L.0,28.0L.0,.0z" fill-rule="nonzero" stroke="#323232"/>
            <text style="fill:#191919;font-family:Microsoft YaHei;font-size:10.00pt" xml:space="preserve">
                <tspan x="13.0" y="19.5">02_myself_ID_EGO</tspan>
            </text>
        </g>
        <g transform="translate(406.00,210.00)" id="shape4">
            <path fill="#cfe9d8" d="M.0,.0L142.0,.0L142.0,28.0L.0,28.0L.0,.0z" fill-rule="nonzero" stroke="#323232"/>
            <text style="fill:#191919;font-family:Microsoft YaHei;font-size:10.00pt" xml:space="preserve">
                <tspan x="24.0" y="19.5">myAdocCss.css</tspan>
            </text>
        </g>
        <g transform="translate(340.00,302.00)" id="shape5">
            <path fill="#ffffff" d="M.0,.0L170.0,.0L170.0,28.0L.0,28.0L.0,.0z" fill-rule="nonzero" stroke="#323232"/>
            <text style="fill:#191919;font-family:Microsoft YaHei;font-size:10.00pt" xml:space="preserve">
                <tspan x="8.5" y="19.5">11_programme_Learning</tspan>
            </text>
        </g>
        <g transform="translate(406.00,340.00)" id="shape6">
            <path fill="#ffffff" d="M.0,.0L142.0,.0L142.0,28.0L.0,28.0L.0,.0z" fill-rule="nonzero" stroke="#323232"/>
            <text style="fill:#191919;font-family:Microsoft YaHei;font-size:10.00pt" xml:space="preserve">
                <tspan x="30.5" y="19.5">201 comfyUI</tspan>
            </text>
        </g>
        <g transform="translate(454.00,377.85)" id="shape7">
            <path fill="#f5cfcf" d="M.0,.0L142.0,.0L142.0,28.0L.0,28.0L.0,.0z" fill-rule="nonzero" stroke="#323232"/>
            <text style="fill:#191919;font-family:Microsoft YaHei;font-size:10.00pt" xml:space="preserve">
                <tspan x="39.5" y="19.5">adoc.adoc</tspan>
            </text>
        </g>
        <g transform="translate(596.00,391.85)" id="shape8">
            <path d="M.0,.0L65.0,.0L65.0,-167.9L-42.0,-167.9" fill="none" stroke="#191919"/>
            <path fill="#191919" d="M-42.0,-164.9L-48.0,-167.9L-42.0,-170.9L-42.0,-164.9" stroke-linecap="round" stroke-width="1" stroke="#191919"/>
            <rect width="179.0" height="19.0" x="-23.5" y="-98.4" fill="#ffffff"/>
            <text style="fill:#191919;font-family:Microsoft YaHei;font-size:10.00pt" xml:space="preserve">
                <tspan x="-23.5" y="-83.4">adoc文件, 如何调用上面的css?</tspan>
            </text>
        </g>
        <g transform="translate(358.26,472.00)" id="shape9">
            <path fill="#f5cfcf" d="M.0,.0L406.0,.0L406.0,38.0L.0,38.0L.0,.0z" fill-rule="nonzero"/>
            <text style="fill:#191919;font-family:Microsoft YaHei;font-size:12.00pt" xml:space="preserve">
                <tspan x="14.5" y="25.5">:stylesheet: ../../02_myself_ID_EGO/myAdocCss.css</tspan>
            </text>
        </g>
        <g transform="translate(737.00,331.00)" id="shape10">
            <path d="M.0,.0L.0,126.0" fill="none" stroke-dasharray="6,4" stroke="#191919"/>
            <path fill="#191919" d="M3.0,126.0L.0,132.0L-3.0,126.0L3.0,126.0" stroke-linecap="round" stroke-width="1" stroke="#191919"/>
        </g>
    </g>
</svg>
