<svg xmlns="http://www.w3.org/2000/svg" viewBox="0 0 277.41 182.5"><defs><style>.cls-1,.cls-10,.cls-2,.cls-7{font-size:8px;}.cls-1,.cls-11,.cls-3{fill:#231815;}.cls-1,.cls-10,.cls-11,.cls-2,.cls-7{font-family:MicrosoftYaHei, Microsoft YaHei;}.cls-2{fill:#094;}.cls-4,.cls-7{fill:#c30d23;}.cls-10,.cls-5{fill:#00a0e9;}.cls-6,.cls-8,.cls-9{fill:none;stroke-miterlimit:10;stroke-width:0.5px;}.cls-6{stroke:#231815;}.cls-8{stroke:#c30d23;}.cls-9{stroke:#00a0e9;}.cls-11{font-size:6px;}</style></defs><title>资源 95</title><g id="图层_2" data-name="图层 2"><g id="图层_3" data-name="图层 3"><text class="cls-1" transform="translate(137 14.08)">函数体</text><text class="cls-1" transform="translate(25.17 115.58)">函数体(组装厂)</text><text class="cls-2" transform="translate(24.06 27.75)">ins中介<tspan class="cls-3"><tspan x="-24.06" y="12">(dlgFn委托中介)类型</tspan></tspan></text><text class="cls-2" transform="translate(25.17 148.25)">ins中介<tspan class="cls-3" x="26.76" y="0">= </tspan><tspan class="cls-4" x="35.06" y="0">fn圆面积 </tspan><tspan class="cls-3" x="69.13" y="0">//中介先代替后者当官</tspan><tspan x="0" y="12">ins中介</tspan><tspan class="cls-3" x="26.76" y="12">(</tspan><tspan class="cls-5" x="29.43" y="12">double num半径</tspan><tspan class="cls-3" x="92.07" y="12">) //中介现在是”官员”了, 再代替原主生孩子</tspan></text><text class="cls-1" transform="translate(87.03 35.25)">指向</text><line class="cls-6" x1="66.69" y1="24.75" x2="119.84" y2="24.75"/><polygon class="cls-3" points="123.37 24.75 118.4 26.78 119.58 24.75 118.4 22.72 123.37 24.75"/><rect class="cls-6" x="130.37" y="0.25" width="115.69" height="48.04"/><rect class="cls-6" x="12.93" y="98.21" width="233.14" height="84.04"/><text class="cls-7" transform="translate(137.87 30.75)">fn圆面积<tspan class="cls-3" x="31.7" y="0">(</tspan><tspan class="cls-5" x="34.38" y="0">double num半径</tspan><tspan class="cls-3" x="97.01" y="0">)</tspan></text><polyline class="cls-8" points="156.37 35.25 156.37 124.25 79.37 124.25 79.37 134.22"/><polygon class="cls-4" points="79.37 137.75 77.34 132.78 79.37 133.96 81.4 132.78 79.37 137.75"/><polyline class="cls-9" points="202.87 35.25 202.87 157.25 129.4 157.25"/><polygon class="cls-5" points="125.87 157.25 130.85 155.22 129.66 157.25 130.85 159.28 125.87 157.25"/><text class="cls-7" transform="translate(115.3 111.39)">(dlgFn委托中介)类型</text><text class="cls-10" transform="translate(206.79 111.39)">double类型</text><text class="cls-11" transform="translate(70.34 73.25)">注意: 委托对象, 指向的函数体, <tspan x="0" y="8">在传入组装厂时, </tspan><tspan x="0" y="16">其参数类型也是”委托类型”的.</tspan></text></g></g></svg>