<svg xmlns="http://www.w3.org/2000/svg" viewBox="0 0 528.56 539"><defs><style>.cls-1{fill:#fff100;}.cls-17,.cls-18,.cls-19,.cls-2{fill:none;}.cls-10,.cls-18,.cls-19,.cls-2{stroke:#231815;}.cls-10,.cls-17,.cls-18,.cls-19,.cls-2{stroke-miterlimit:10;}.cls-11,.cls-3,.cls-4,.cls-5,.cls-7{font-size:12px;font-family:MicrosoftYaHei, Microsoft YaHei;}.cls-3{fill:#00a0e9;}.cls-4,.cls-9{fill:#231815;}.cls-14,.cls-15,.cls-16,.cls-5{fill:#094;}.cls-15,.cls-6{letter-spacing:-0.03em;}.cls-7{fill:#601986;}.cls-8{letter-spacing:0.03em;}.cls-10{fill:#fff;}.cls-11{fill:#c30d23;}.cls-12{font-size:8px;}.cls-13,.cls-16{letter-spacing:-0.01em;}.cls-17{stroke:#094;}.cls-18{stroke-dasharray:2.99 1.99;}.cls-19{stroke-dasharray:3 2;}</style></defs><title>资源 1</title><g id="图层_2" data-name="图层 2"><g id="图层_1-2" data-name="图层 1"><rect class="cls-1" x="31.33" y="259.5" width="283" height="22"/><rect class="cls-2" x="39" y="392.5" width="241" height="146"/><text class="cls-3" transform="translate(58 418.5)">fn函数任务</text><text class="cls-4" transform="translate(239.33 26.5)">struct 结构体</text><text class="cls-5" transform="translate(239.33 153.5)">ins<tspan class="cls-6" x="16.14" y="0">S</tspan><tspan x="22.65" y="0">truct 实例</tspan></text><text class="cls-7" transform="translate(239.33 182.5)">参数1的具体值 = “z<tspan class="cls-8" x="112.94" y="0">r</tspan><tspan x="117.9" y="0">x”</tspan><tspan x="0" y="17" xml:space="preserve">参数1的具体值 =   19</tspan></text><text class="cls-3" transform="translate(239.33 56.5)">fn函数<tspan class="cls-9" x="35.55" y="0" xml:space="preserve"> 要接收的参数1</tspan><tspan x="0" y="17">fn函数</tspan><tspan class="cls-9" x="35.55" y="17" xml:space="preserve"> 要接收的参数2</tspan></text><polygon class="cls-10" points="237.33 373.5 218.33 393.17 218.33 411.5 191.33 411.5 191.33 392.83 172 373.5 237.33 373.5"/><text class="cls-4" transform="translate(172 361.5)">Object 类型</text><text class="cls-11" transform="translate(0 330)">新线程1,<tspan x="0" y="17">专门执行fn任务</tspan></text><text class="cls-11" transform="translate(209.33 326)">传入 struct类型的一个参数</text><text class="cls-11" transform="translate(409 160)">该结构体实例<tspan x="0" y="17">封装了要传给fn函数的</tspan><tspan x="0" y="34">多个具体参数值</tspan></text><text class="cls-4" transform="translate(172 470.5)">Object 类型</text><text class="cls-5" transform="translate(60.98 465.5)">struct 类型<tspan class="cls-12"><tspan x="-8.65" y="11">(封装了多个参数的值)</tspan></tspan></text><line class="cls-2" x1="168.58" y1="466.25" x2="143.56" y2="466.25"/><polygon class="cls-9" points="136.5 466.25 146.45 462.19 144.09 466.25 146.45 470.31 136.5 466.25"/><text class="cls-11" transform="translate(144.33 452.17)">转成</text><polyline class="cls-2" points="89.58 485 89.58 513 109.02 513"/><polygon class="cls-9" points="116.08 513 106.13 517.07 108.5 513 106.13 508.94 116.08 513"/><text class="cls-7" transform="translate(123.17 517)">拿到里面的字段值</text><text class="cls-4" transform="translate(63 276.5)">Th<tspan class="cls-13" x="14.27" y="0">r</tspan><tspan x="18.68" y="0">ead</tspan></text><text class="cls-4" transform="translate(123.17 276.5)">t线程1.<tspan class="cls-6" x="38.4" y="0">S</tspan><tspan x="44.91" y="0">ta</tspan><tspan class="cls-8" x="56.01" y="0">r</tspan><tspan x="60.97" y="0">t(</tspan><tspan class="cls-14" x="69.45" y="0">ins</tspan><tspan class="cls-15" x="85.59" y="0">S</tspan><tspan class="cls-14" x="92.1" y="0">t</tspan><tspan class="cls-16" x="96.57" y="0">r</tspan><tspan class="cls-14" x="100.98" y="0">c多参数的值</tspan><tspan x="167" y="0">)</tspan></text><line class="cls-2" x1="89.58" y1="287.5" x2="89.58" y2="395.44"/><polygon class="cls-9" points="89.58 402.5 85.52 392.55 89.58 394.91 93.65 392.55 89.58 402.5"/><line class="cls-17" x1="204.67" y1="287.5" x2="204.67" y2="445.11"/><polygon class="cls-14" points="204.67 452.17 200.6 442.22 204.67 444.58 208.73 442.22 204.67 452.17"/><line class="cls-2" x1="314.33" y1="90.5" x2="314.33" y2="118.44"/><polygon class="cls-9" points="314.33 125.5 310.27 115.55 314.33 117.91 318.4 115.55 314.33 125.5"/><rect class="cls-2" x="223" y="0.5" width="174.33" height="90"/><polyline class="cls-2" points="397.33 214 397.33 215.5 395.83 215.5"/><line class="cls-18" x1="393.84" y1="215.5" x2="225.5" y2="215.5"/><polyline class="cls-2" points="224.5 215.5 223 215.5 223 214"/><line class="cls-19" x1="223" y1="212" x2="223" y2="128"/><polyline class="cls-2" points="223 127 223 125.5 224.5 125.5"/><line class="cls-18" x1="226.49" y1="125.5" x2="394.84" y2="125.5"/><polyline class="cls-2" points="395.83 125.5 397.33 125.5 397.33 127"/><line class="cls-19" x1="397.33" y1="129" x2="397.33" y2="213"/><polyline class="cls-17" points="235.33 147.5 205.33 147.5 205.33 252.44"/><polygon class="cls-14" points="205.33 259.5 201.27 249.55 205.33 251.91 209.4 249.55 205.33 259.5"/></g></g></svg>