<svg id="图层_1" data-name="图层 1" xmlns="http://www.w3.org/2000/svg" viewBox="0 0 567.84 508.18"><defs><style>.cls-1{fill:#f8b62d;}.cls-2{fill:#8fc31f;}.cls-20,.cls-24,.cls-3,.cls-67{fill:none;stroke-miterlimit:10;}.cls-20,.cls-24,.cls-3{stroke:#000;}.cls-3{stroke-width:0.5px;}.cls-13,.cls-4{font-size:10px;}.cls-13,.cls-19,.cls-21,.cls-4,.cls-52,.cls-64{font-family:MicrosoftYaHei, Microsoft YaHei;}.cls-5{letter-spacing:0.01em;}.cls-6{letter-spacing:0em;}.cls-7{letter-spacing:0em;}.cls-8{letter-spacing:0.01em;}.cls-9{letter-spacing:0.01em;}.cls-10{letter-spacing:0.01em;}.cls-11{font-size:13px;}.cls-11,.cls-42,.cls-43{font-family:MicrosoftYaHei-Bold, Microsoft YaHei;font-weight:700;}.cls-12{letter-spacing:0em;}.cls-13,.cls-21,.cls-43{fill:#c30d23;}.cls-14{letter-spacing:-0.01em;}.cls-15{letter-spacing:0.01em;}.cls-16{letter-spacing:0.01em;}.cls-17{letter-spacing:0.01em;}.cls-18{letter-spacing:0em;}.cls-19,.cls-21{font-size:12px;}.cls-22{letter-spacing:0em;}.cls-23{letter-spacing:-0.01em;}.cls-24{stroke-dasharray:2 2;}.cls-25{letter-spacing:0.01em;}.cls-26{letter-spacing:-0.01em;}.cls-27{letter-spacing:0em;}.cls-28{letter-spacing:0em;}.cls-29{letter-spacing:0.01em;}.cls-30{letter-spacing:-0.01em;}.cls-31{letter-spacing:0em;}.cls-32{letter-spacing:0em;}.cls-33{letter-spacing:0em;}.cls-34{letter-spacing:0em;}.cls-35{letter-spacing:0em;}.cls-36{letter-spacing:0.01em;}.cls-37{letter-spacing:0em;}.cls-38{letter-spacing:0.01em;}.cls-39{letter-spacing:0em;}.cls-40{letter-spacing:0.01em;}.cls-41{letter-spacing:-0.01em;}.cls-42,.cls-43{font-size:16px;}.cls-44{letter-spacing:0.01em;}.cls-45{letter-spacing:0em;}.cls-46{letter-spacing:0em;}.cls-47{letter-spacing:0.01em;}.cls-48{letter-spacing:0em;}.cls-49{letter-spacing:0em;}.cls-50{letter-spacing:-0.01em;}.cls-51{letter-spacing:-0.01em;}.cls-52,.cls-64{font-size:17px;}.cls-53{letter-spacing:0em;}.cls-54{letter-spacing:0.01em;}.cls-55{letter-spacing:0em;}.cls-56{letter-spacing:-0.01em;}.cls-57{letter-spacing:0em;}.cls-58{letter-spacing:0em;}.cls-59{letter-spacing:0em;}.cls-60{letter-spacing:0em;}.cls-61{letter-spacing:0em;}.cls-62{letter-spacing:-0.01em;}.cls-63{letter-spacing:0em;}.cls-64{letter-spacing:0em;}.cls-65{letter-spacing:-0.01em;}.cls-66{letter-spacing:0em;}.cls-67{stroke:#c30d23;}.cls-68{letter-spacing:0.01em;}.cls-69{letter-spacing:0.01em;}.cls-70{letter-spacing:0em;}.cls-71{letter-spacing:0em;}.cls-72{letter-spacing:0.01em;}</style></defs><title>arr_copyWithin</title><polygon class="cls-1" points="219.5 221.43 212 221.43 212 196.43 219.5 196.43 219.5 221.43 219.5 221.43"/><polygon class="cls-1" points="249 150.43 241.5 150.43 241.5 125.43 249 125.43 249 150.43 249 150.43"/><polygon class="cls-2" points="275.75 150.43 255.5 150.43 255.5 125.43 275.75 125.43 275.75 150.43 275.75 150.43"/><polygon class="cls-1" points="317.25 367.93 241.5 367.93 241.5 342.93 317.25 342.93 317.25 367.93 317.25 367.93"/><polygon class="cls-1" points="296.75 441.68 283 441.68 283 416.68 296.75 416.68 296.75 441.68 296.75 441.68"/><polygon class="cls-2" points="345.75 367.93 325.25 367.93 325.25 342.93 345.75 342.93 345.75 367.93 345.75 367.93"/><polygon class="cls-2" points="551.25 367.93 512 367.93 512 342.93 551.25 342.93 551.25 367.93 551.25 367.93"/><polygon class="cls-2" points="410.75 150.43 390.5 150.43 390.5 125.43 410.75 125.43 410.75 150.43 410.75 150.43"/><polygon class="cls-2" points="321 221.43 285 221.43 285 196.43 321 196.43 321 221.43 321 221.43"/><line class="cls-3" x1="249" y1="154.43" x2="221.75" y2="189.18"/><polygon points="219.5 191.93 221 186.68 221.75 188.93 224.25 189.18 219.5 191.93 219.5 191.93"/><line class="cls-3" x1="244.25" y1="101.43" x2="256.5" y2="129.18"/><polygon points="258 132.43 254 128.68 256.5 128.93 257.75 127.18 258 132.43 258 132.43"/><line class="cls-3" x1="165.25" y1="94.43" x2="241" y2="130.93"/><polygon points="244.25 132.43 239 132.18 240.75 130.68 240.75 128.43 244.25 132.43 244.25 132.43"/><line class="cls-3" x1="299" y1="101.43" x2="274.75" y2="129.68"/><polygon points="272.5 132.43 274.25 127.43 275 129.43 277.25 129.93 272.5 132.43 272.5 132.43"/><line class="cls-3" x1="265.75" y1="154.43" x2="285.75" y2="188.93"/><polygon points="287.5 191.93 283.25 188.68 285.5 188.68 286.75 186.68 287.5 191.93 287.5 191.93"/><line class="cls-3" x1="306.5" y1="362.43" x2="291" y2="408.93"/><polygon points="290 412.18 289.5 406.93 291 408.68 293.25 408.18 290 412.18 290 412.18"/><line class="cls-3" x1="276.5" y1="147.43" x2="332.75" y2="194.18"/><polygon points="335.5 196.43 330.5 194.93 332.5 193.93 333 191.68 335.5 196.43 335.5 196.43"/><text class="cls-4" transform="translate(212 82.59)">要拷贝的起始位置</text><text class="cls-4" transform="translate(212 94.59)"><tspan class="cls-5">s</tspan><tspan class="cls-6" x="4.75" y="0">t</tspan><tspan x="8.49" y="0">a</tspan></text><text class="cls-4" transform="translate(225.88 94.59)">r</text><text class="cls-4" transform="translate(230.01 94.59)"><tspan class="cls-6">t</tspan><tspan class="cls-7" x="3.75" y="0">_</tspan><tspan class="cls-8" x="8.24" y="0">in</tspan><tspan class="cls-9" x="17.22" y="0">d</tspan><tspan class="cls-10" x="23.72" y="0">e</tspan><tspan x="29.46" y="0">x</tspan></text><text class="cls-11" transform="translate(6.25 136.68)">覆盖开头<tspan class="cls-12" x="52" y="0">n</tspan><tspan x="60.49" y="0">个元素</tspan></text><text class="cls-11" transform="translate(6.25 359.42)">覆盖末尾<tspan class="cls-12" x="52" y="0">n</tspan><tspan x="60.49" y="0">个元素</tspan></text><text class="cls-13" transform="translate(130.59 87.93)">要覆盖的位置</text><text class="cls-4" transform="translate(306.03 80.93)">要拷贝的结束位置</text><text class="cls-13" transform="translate(306.03 92.93)"><tspan class="cls-14">(</tspan><tspan x="3.26" y="0">包头不包尾</tspan><tspan class="cls-15" x="53.26" y="0">,</tspan><tspan x="55.76" y="0">所以不包括这个元素)</tspan></text><text class="cls-4" transform="translate(306.03 104.93)"><tspan class="cls-16">e</tspan><tspan class="cls-8" x="5.74" y="0">n</tspan><tspan class="cls-17" x="11.99" y="0">d</tspan><tspan class="cls-7" x="18.48" y="0">_</tspan><tspan class="cls-8" x="22.97" y="0">in</tspan><tspan class="cls-17" x="31.96" y="0">d</tspan><tspan class="cls-16" x="38.45" y="0">e</tspan><tspan x="44.2" y="0">x</tspan></text><text class="cls-4" transform="translate(376.1 161.43)">注意<tspan class="cls-15" x="20" y="0">:</tspan><tspan class="cls-18" x="22.5" y="0"> </tspan><tspan x="25.5" y="0">数组总长度不变</tspan><tspan class="cls-5" x="95.5" y="0">!</tspan><tspan class="cls-18" x="98.74" y="0"> </tspan><tspan x="101.74" y="0">只是覆盖老元素而已</tspan></text><path class="cls-3" d="M685.5,437.36c-7.75,17.5-25.25,28.5-43.5,27.5-19.25-1-30.75-14.75-35-21" transform="translate(-382 -214.43)"/><polygon points="223 226.43 227.5 229.43 225 229.68 224 231.68 223 226.43 223 226.43"/><text class="cls-19" transform="translate(249 266.45)">覆盖</text><polygon class="cls-20" points="388 270.43 137 270.43 137 185.43 388 185.43 388 270.43 388 270.43"/><polygon class="cls-2" points="321 437.18 265.75 437.18 265.75 429.18 321 429.18 321 437.18 321 437.18"/><polygon class="cls-2" points="348.75 461.93 285 461.93 285 453.93 348.75 453.93 348.75 461.93 348.75 461.93"/><path class="cls-3" d="M656.75,658.61c4.5,16.5,17.25,27.5,30.5,27.5a25.72,25.72,0,0,0,15.25-5.25" transform="translate(-382 -214.43)"/><polygon points="323.25 464.18 320.75 468.93 320.25 466.68 318.25 465.68 323.25 464.18 323.25 464.18"/><text class="cls-19" transform="translate(257.83 479.11)">覆盖</text><text class="cls-21" transform="translate(289.88 485.1)">截取出来的<tspan class="cls-22" x="60" y="0">45</tspan><tspan x="74" y="0">x</tspan></text><text class="cls-21" transform="translate(289.88 499.51)">会覆盖掉最后三位<tspan class="cls-22" x="96" y="0">5</tspan><tspan class="cls-23" x="103" y="0">x</tspan><tspan x="109.01" y="0">y</tspan></text><polygon class="cls-20" points="414 507.68 137 507.68 137 403.43 414 403.43 414 507.68 414 507.68"/><line class="cls-20" y1="296.18" x2="1" y2="296.18"/><line class="cls-24" x1="3" y1="296.18" x2="560" y2="296.18"/><line class="cls-20" x1="561" y1="296.18" x2="562" y2="296.18"/><text class="cls-19" transform="translate(146.96 143.77)"><tspan class="cls-25">a</tspan><tspan class="cls-26" x="6.74" y="0">rr</tspan><tspan class="cls-27" x="15.76" y="0">1</tspan><tspan x="22.76" y="0">.</tspan></text><text class="cls-21" transform="translate(172.68 143.77)"><tspan class="cls-28">c</tspan><tspan class="cls-9" x="6.01" y="0">o</tspan><tspan class="cls-29" x="13.75" y="0">p</tspan><tspan class="cls-30" x="21.5" y="0">y</tspan><tspan class="cls-31" x="27.76" y="0">W</tspan><tspan class="cls-32" x="40" y="0">i</tspan><tspan class="cls-33" x="43.25" y="0">t</tspan><tspan class="cls-25" x="47.74" y="0">h</tspan><tspan class="cls-34" x="55.24" y="0">i</tspan><tspan x="58.48" y="0">n</tspan></text><text class="cls-19" transform="translate(238.19 143.77)">(<tspan class="cls-22" x="4.01" y="0">0</tspan><tspan class="cls-25" x="11.01" y="0">,</tspan><tspan class="cls-35" x="14.01" y="0"> </tspan><tspan class="cls-22" x="17.51" y="0">4</tspan><tspan class="cls-36" x="24.51" y="0">,</tspan><tspan class="cls-37" x="27.51" y="0"> </tspan><tspan class="cls-27" x="31.01" y="0">6</tspan><tspan x="38.01" y="0">)</tspan><tspan class="cls-37" x="42.02" y="0" xml:space="preserve">  </tspan><tspan class="cls-34" x="49.02" y="0">--</tspan><tspan class="cls-38" x="59.5" y="0">&gt;</tspan><tspan class="cls-39" x="68.5" y="0"> </tspan><tspan x="72" y="0">最终结果就是</tspan><tspan class="cls-35" x="144" y="0"> </tspan><tspan x="147.5" y="0">[</tspan><tspan class="cls-22" x="151.51" y="0">5</tspan><tspan class="cls-36" x="158.51" y="0">,</tspan><tspan class="cls-35" x="161.51" y="0"> </tspan><tspan class="cls-23" x="165.01" y="0">x</tspan><tspan class="cls-36" x="171.02" y="0">,</tspan><tspan class="cls-35" x="174.02" y="0"> </tspan><tspan class="cls-22" x="177.52" y="0">3</tspan><tspan class="cls-40" x="184.52" y="0">,</tspan><tspan class="cls-35" x="187.52" y="0"> </tspan><tspan class="cls-22" x="191.02" y="0">4</tspan><tspan class="cls-36" x="198.02" y="0">,</tspan><tspan class="cls-35" x="201.02" y="0"> </tspan><tspan class="cls-22" x="204.52" y="0">5</tspan><tspan class="cls-40" x="211.52" y="0">,</tspan><tspan class="cls-35" x="214.52" y="0"> </tspan><tspan class="cls-41" x="218.02" y="0">x</tspan><tspan class="cls-40" x="224.03" y="0">,</tspan><tspan class="cls-35" x="227.03" y="0"> </tspan><tspan class="cls-30" x="230.53" y="0">y</tspan><tspan x="236.79" y="0">]</tspan></text><text class="cls-42" transform="translate(6.25 13.77)">数组.</text><text class="cls-43" transform="translate(42.82 13.77)">co<tspan class="cls-44" x="18.78" y="0">p</tspan><tspan class="cls-45" x="29.52" y="0">y</tspan><tspan class="cls-46" x="38.75" y="0">W</tspan><tspan x="55.99" y="0">i</tspan><tspan class="cls-47" x="60.72" y="0">t</tspan><tspan class="cls-48" x="67.46" y="0">h</tspan><tspan x="77.72" y="0">in</tspan></text><text class="cls-42" transform="translate(135.46 13.77)">(覆盖位置<tspan class="cls-48" x="70.23" y="0">,</tspan><tspan x="74.74" y="0" xml:space="preserve"> 拷贝起始位置</tspan><tspan class="cls-49" x="175.51" y="0">,</tspan><tspan x="180.01" y="0" xml:space="preserve"> 拷贝结束位置)</tspan></text><text class="cls-42" transform="translate(6.25 37.77)"><tspan class="cls-50">1</tspan><tspan class="cls-48" x="9.76" y="0">.</tspan><tspan x="14.26" y="0">先拷贝</tspan><tspan class="cls-51" x="62.26" y="0">n</tspan><tspan x="72.52" y="0">个元素</tspan><tspan class="cls-48" x="120.52" y="0">,</tspan><tspan x="125.02" y="0"> </tspan><tspan class="cls-50" x="129.79" y="0">2</tspan><tspan class="cls-48" x="139.54" y="0">.</tspan><tspan x="144.05" y="0">后覆盖</tspan><tspan class="cls-51" x="192.05" y="0">n</tspan><tspan x="202.31" y="0">个老元素</tspan><tspan class="cls-48" x="266.31" y="0">,</tspan><tspan x="270.81" y="0"> </tspan><tspan class="cls-51" x="275.58" y="0">3</tspan><tspan class="cls-49" x="285.33" y="0">.</tspan><tspan x="289.84" y="0">数组总长度不变</tspan></text><text class="cls-52" transform="translate(146.96 215.28)"><tspan class="cls-53"> </tspan><tspan class="cls-54" x="5.01" y="0">a</tspan><tspan x="14.51" y="0">rr</tspan><tspan class="cls-55" x="27.49" y="0">1</tspan><tspan class="cls-53" x="37.48" y="0"> </tspan><tspan class="cls-56" x="42.49" y="0">=</tspan><tspan class="cls-53" x="55" y="0"> </tspan><tspan x="60.01" y="0">[</tspan></text><text class="cls-52" transform="translate(210.93 215.28)"><tspan class="cls-55">1</tspan><tspan class="cls-57" x="9.99" y="0">,</tspan><tspan class="cls-53" x="13.99" y="0"> </tspan><tspan class="cls-55" x="19.01" y="0">2</tspan><tspan x="28.99" y="0">,</tspan></text><text class="cls-52" transform="translate(243.19 215.28)"><tspan class="cls-53"> </tspan><tspan class="cls-55" x="5.01" y="0">3</tspan><tspan class="cls-57" x="15" y="0">,</tspan><tspan class="cls-53" x="19.01" y="0"> </tspan><tspan class="cls-55" x="24.02" y="0">4</tspan><tspan class="cls-57" x="34.01" y="0">,</tspan><tspan class="cls-58" x="38.01" y="0"> </tspan><tspan class="cls-59" x="43.03" y="0">5</tspan><tspan class="cls-60" x="53.01" y="0">,</tspan><tspan class="cls-61" x="57.02" y="0"> </tspan><tspan class="cls-62" x="62.03" y="0">&apos;x&apos;</tspan><tspan class="cls-60" x="79.06" y="0">,</tspan><tspan class="cls-61" x="83.07" y="0"> </tspan><tspan x="88.08" y="0">&apos;</tspan></text><text class="cls-52" transform="translate(333.82 215.28)">y</text><text class="cls-52" transform="translate(342.83 215.28)"><tspan class="cls-62">&apos;</tspan><tspan x="4.26" y="0">]</tspan></text><rect x="211" y="210.18" width="32.25" height="1.25"/><text class="cls-52" transform="translate(146.96 433.27)"><tspan class="cls-53"> </tspan><tspan class="cls-54" x="5.01" y="0">a</tspan><tspan x="14.51" y="0">rr</tspan><tspan class="cls-55" x="27.49" y="0">1</tspan><tspan class="cls-53" x="37.48" y="0"> </tspan><tspan class="cls-56" x="42.49" y="0">=</tspan><tspan class="cls-53" x="55" y="0"> </tspan><tspan class="cls-63" x="60.01" y="0">[</tspan><tspan class="cls-7" x="65.76" y="0">1</tspan><tspan class="cls-57" x="75.75" y="0">,</tspan><tspan class="cls-58" x="79.75" y="0"> </tspan><tspan class="cls-7" x="84.77" y="0">2</tspan><tspan class="cls-57" x="94.75" y="0">,</tspan><tspan class="cls-53" x="98.76" y="0"> </tspan><tspan class="cls-55" x="103.77" y="0">3</tspan><tspan class="cls-57" x="113.76" y="0">,</tspan><tspan class="cls-53" x="117.77" y="0"> </tspan><tspan class="cls-55" x="122.78" y="0">4</tspan><tspan x="132.77" y="0">,</tspan></text><text class="cls-64" transform="translate(285.25 433.27)">5<tspan class="cls-57" x="9.99" y="0">,</tspan><tspan class="cls-58" x="13.99" y="0"> </tspan><tspan class="cls-65" x="19.01" y="0">&apos;x&apos;</tspan><tspan class="cls-57" x="36.03" y="0">,</tspan><tspan class="cls-58" x="40.04" y="0"> </tspan><tspan class="cls-66" x="45.05" y="0">&apos;</tspan></text><text class="cls-52" transform="translate(333.82 433.27)">y</text><text class="cls-52" transform="translate(342.83 433.27)">&apos;</text><text class="cls-52" transform="translate(347.07 433.27)">]</text><rect x="342.75" y="428.18" width="4.25" height="1.25"/><rect x="333.75" y="428.18" width="9" height="1.25"/><rect x="285.25" y="428.18" width="48.5" height="1.25"/><polygon class="cls-67" points="287.5 156.43 126.75 156.43 126.75 116.93 287.5 116.93 287.5 156.43 287.5 156.43"/><text class="cls-19" transform="translate(146.96 362.44)"><tspan class="cls-25">a</tspan><tspan class="cls-26" x="6.74" y="0">rr</tspan><tspan class="cls-27" x="15.76" y="0">1</tspan><tspan x="22.76" y="0">.</tspan></text><text class="cls-21" transform="translate(172.68 362.44)"><tspan class="cls-28">c</tspan><tspan class="cls-9" x="6.01" y="0">o</tspan><tspan class="cls-29" x="13.75" y="0">p</tspan><tspan class="cls-30" x="21.5" y="0">y</tspan><tspan class="cls-31" x="27.76" y="0">W</tspan><tspan class="cls-32" x="40" y="0">i</tspan><tspan class="cls-33" x="43.25" y="0">t</tspan><tspan class="cls-25" x="47.74" y="0">h</tspan><tspan class="cls-34" x="55.24" y="0">i</tspan><tspan x="58.48" y="0">n</tspan></text><text class="cls-19" transform="translate(238.19 362.44)">(<tspan class="cls-34" x="4.01" y="0">li</tspan><tspan class="cls-37" x="10.49" y="0">s</tspan><tspan class="cls-33" x="16" y="0">t</tspan><tspan class="cls-27" x="20.49" y="0">1</tspan><tspan class="cls-25" x="27.49" y="0">.</tspan><tspan class="cls-34" x="30.49" y="0">l</tspan><tspan class="cls-35" x="33.73" y="0">e</tspan><tspan class="cls-68" x="40.49" y="0">n</tspan><tspan class="cls-69" x="47.98" y="0">g</tspan><tspan class="cls-70" x="55.73" y="0">t</tspan><tspan class="cls-36" x="60.22" y="0">h</tspan><tspan class="cls-34" x="67.72" y="0">-</tspan><tspan class="cls-22" x="72.96" y="0">3</tspan><tspan class="cls-36" x="79.96" y="0">,</tspan><tspan class="cls-39" x="82.96" y="0"> </tspan><tspan class="cls-71" x="86.46" y="0">3</tspan><tspan class="cls-40" x="93.46" y="0">,</tspan><tspan class="cls-35" x="96.46" y="0"> </tspan><tspan class="cls-22" x="99.96" y="0">6</tspan><tspan x="106.96" y="0">)</tspan><tspan class="cls-35" x="110.97" y="0" xml:space="preserve">  </tspan><tspan class="cls-34" x="117.98" y="0">--</tspan><tspan class="cls-72" x="128.46" y="0">&gt;</tspan><tspan class="cls-35" x="137.45" y="0"> </tspan><tspan x="140.95" y="0">最终结果就是</tspan><tspan class="cls-35" x="212.95" y="0"> </tspan><tspan x="216.46" y="0">[</tspan><tspan class="cls-22" x="220.46" y="0">1</tspan><tspan class="cls-36" x="227.47" y="0">,</tspan><tspan class="cls-35" x="230.46" y="0"> </tspan><tspan class="cls-22" x="233.97" y="0">2</tspan><tspan class="cls-40" x="240.97" y="0">,</tspan><tspan class="cls-35" x="243.96" y="0"> </tspan><tspan class="cls-22" x="247.47" y="0">3</tspan><tspan class="cls-36" x="254.47" y="0">,</tspan><tspan class="cls-35" x="257.46" y="0"> </tspan><tspan class="cls-22" x="260.97" y="0">4</tspan><tspan class="cls-36" x="267.97" y="0">,</tspan><tspan class="cls-39" x="270.96" y="0"> </tspan><tspan class="cls-71" x="274.47" y="0">4</tspan><tspan class="cls-40" x="281.47" y="0">,</tspan><tspan class="cls-35" x="284.46" y="0"> </tspan><tspan class="cls-22" x="287.97" y="0">5</tspan><tspan class="cls-36" x="294.97" y="0">,</tspan><tspan class="cls-35" x="297.97" y="0"> </tspan><tspan class="cls-23" x="301.47" y="0">&apos;x&apos;</tspan><tspan class="cls-35" x="313.49" y="0"> </tspan><tspan x="316.99" y="0">]</tspan></text><polygon class="cls-67" points="357.25 375.18 126.75 375.18 126.75 335.68 357.25 335.68 357.25 375.18 357.25 375.18"/></svg>