<svg xmlns="http://www.w3.org/2000/svg" viewBox="0 0 320 398.33"><defs><style>.cls-1{fill:#dcdddd;}.cls-2{fill:#f39800;}.cls-3{fill:#e83828;}.cls-4{fill:#8fc31f;}.cls-5{fill:#00a0e9;}.cls-6{fill:none;stroke:#595757;stroke-miterlimit:10;}.cls-7{fill:#595757;}.cls-8{font-size:9px;font-family:MicrosoftYaHeiLight, Microsoft YaHei;}.cls-14,.cls-8{fill:#231815;}.cls-9{letter-spacing:-0.02em;}.cls-10{letter-spacing:0.05em;}.cls-11,.cls-12{font-family:MicrosoftYaHei-Bold, Microsoft YaHei;font-weight:700;}.cls-12{letter-spacing:0em;}.cls-13{letter-spacing:0em;}.cls-14{font-size:11px;}.cls-14,.cls-16{font-family:MicrosoftYaHei, Microsoft YaHei;}.cls-15{letter-spacing:-0.01em;}.cls-16{font-size:7px;fill:#c30d23;}</style></defs><title>资源 1</title><g id="图层_2" data-name="图层 2"><g id="图层_2-2" data-name="图层 2"><rect class="cls-1" x="14.5" y="150.97" width="305.5" height="113.5"/><rect class="cls-2" x="128" y="160.47" width="16" height="15.5"/><rect class="cls-3" x="234.5" y="160.47" width="71.5" height="15.5"/><rect class="cls-2" x="106" y="300.47" width="18" height="15.5"/><rect class="cls-2" x="57" y="176.72" width="17" height="13.25"/><rect class="cls-4" x="86.25" y="176.72" width="45.75" height="13.25"/><rect class="cls-5" x="68.5" y="160.47" width="56.5" height="15.5"/><rect class="cls-5" x="49" y="300.47" width="57" height="15.5"/><rect class="cls-4" x="137.5" y="176.72" width="67.5" height="13.25"/><rect class="cls-4" x="53.5" y="19.97" width="38" height="15.5"/><rect class="cls-4" x="42" y="34.97" width="70.5" height="15.5"/><polyline class="cls-6" points="178.54 175.47 178.54 90.97 121.06 56.6"/><polygon class="cls-7" points="115 52.97 125.63 54.59 121.51 56.87 121.45 61.57 115 52.97"/><polyline class="cls-6" points="65 162.46 0.5 162.46 0.5 315 35.94 315"/><polygon class="cls-7" points="43 315 33.05 319.06 35.41 315 33.05 310.93 43 315"/><polyline class="cls-6" points="283 163.47 283 0.5 69 0.5 69 12.41"/><polygon class="cls-7" points="69 19.47 64.94 9.52 69 11.88 73.06 9.52 69 19.47"/></g><g id="图层_1-2" data-name="图层 1"><text class="cls-8" transform="translate(34 31.97)">type ItfHuman = {<tspan x="0" y="14" xml:space="preserve">    academicDeg</tspan><tspan class="cls-9" x="66.13" y="14">r</tspan><tspan x="69.14" y="14">ee: string, //人类专属属性</tspan><tspan x="0" y="28" xml:space="preserve">    bi</tspan><tspan class="cls-10" x="18.09" y="28">r</tspan><tspan x="21.73" y="28">thday: object</tspan><tspan x="0" y="42">}</tspan><tspan x="0" y="70">type ItfAnimal = {</tspan><tspan x="0" y="84" xml:space="preserve">    extinctionTime: number //动物专属属性</tspan><tspan x="0" y="98" xml:space="preserve">    bi</tspan><tspan class="cls-10" x="18.09" y="98">r</tspan><tspan x="21.73" y="98">thday: object</tspan><tspan x="0" y="112">}</tspan><tspan x="0" y="140">function fn_IsItfHuman(a</tspan><tspan class="cls-9" x="98.62" y="140">r</tspan><tspan x="101.63" y="140">g: ItfHuman | ItfAnimal): </tspan><tspan class="cls-11" x="200.43" y="140">a</tspan><tspan class="cls-12" x="205.62" y="140">r</tspan><tspan class="cls-11" x="209.4" y="140">g is ItfHuman</tspan><tspan x="271.33" y="140" xml:space="preserve"> {</tspan><tspan x="0" y="154" xml:space="preserve">    if (</tspan><tspan class="cls-11" x="20.73" y="154">(a</tspan><tspan class="cls-12" x="29.44" y="154">r</tspan><tspan class="cls-11" x="33.21" y="154">g as ItfHuman)</tspan><tspan x="101.18" y="154">.academicDeg</tspan><tspan class="cls-9" x="158.82" y="154">r</tspan><tspan x="161.83" y="154">ee !== undefined) { </tspan><tspan x="0" y="168" xml:space="preserve">        </tspan><tspan class="cls-9" x="21.3" y="168">r</tspan><tspan x="24.32" y="168">etu</tspan><tspan class="cls-13" x="37.32" y="168">r</tspan><tspan x="40.5" y="168">n true</tspan><tspan x="0" y="182" xml:space="preserve">    } else {</tspan><tspan x="0" y="196" xml:space="preserve">        </tspan><tspan class="cls-9" x="21.3" y="196">r</tspan><tspan x="24.32" y="196">etu</tspan><tspan class="cls-13" x="37.32" y="196">r</tspan><tspan x="40.5" y="196">n false</tspan><tspan x="0" y="210" xml:space="preserve">    }</tspan><tspan x="0" y="224">}</tspan><tspan x="0" y="266">function fn(a</tspan><tspan class="cls-9" x="51.03" y="266">r</tspan><tspan x="54.05" y="266">g: ItfHuman | ItfAnimal) {</tspan><tspan x="0" y="280" xml:space="preserve">   if(fn_IsItfHuman(a</tspan><tspan class="cls-9" x="78.42" y="280">r</tspan><tspan x="81.44" y="280" xml:space="preserve">g)){  //调用判断函数</tspan><tspan x="0" y="294" xml:space="preserve">       console.log(a</tspan><tspan class="cls-9" x="72.34" y="294">r</tspan><tspan x="75.36" y="294">g.academicDeg</tspan><tspan class="cls-9" x="138.44" y="294">r</tspan><tspan x="141.45" y="294">ee);</tspan><tspan x="0" y="308" xml:space="preserve">   }</tspan><tspan x="0" y="322" xml:space="preserve">   else{</tspan><tspan x="0" y="336" xml:space="preserve">       console.log(a</tspan><tspan class="cls-9" x="72.34" y="336">r</tspan><tspan x="75.36" y="336">g.extinctionTime); </tspan><tspan x="0" y="350" xml:space="preserve">   }</tspan><tspan x="0" y="364">}</tspan></text><text class="cls-14" transform="translate(133.5 252.45)">此函数判断a<tspan class="cls-15" x="61.08" y="0">r</tspan><tspan x="65.12" y="0">g是否是人类接口类型</tspan></text><text class="cls-16" transform="translate(136.5 205.97)">1. 将a<tspan class="cls-15" x="18.73" y="0">r</tspan><tspan x="21.3" y="0">g先断言成人类接口</tspan><tspan x="0" y="10">2. 判断a</tspan><tspan class="cls-15" x="25.73" y="10">r</tspan><tspan x="28.3" y="10">g上是否存在人类接口专有的学位属性</tspan><tspan x="0" y="20">3.如果存在, 则a</tspan><tspan class="cls-15" x="48.42" y="20">r</tspan><tspan x="50.99" y="20">g就是人类接口类型! 就让本函数返回true</tspan></text></g></g></svg>