<svg xmlns="http://www.w3.org/2000/svg" viewBox="0 0 543.38 525.38"><defs><style>.cls-1{fill:#a8dac3;}.cls-2{fill:#fff100;}.cls-3{fill:#f39800;}.cls-4{fill:#2ea7e0;}.cls-5{font-size:14px;font-family:MicrosoftYaHei, Microsoft YaHei;}.cls-11,.cls-6{fill:none;stroke:#231815;stroke-miterlimit:10;}.cls-6{stroke-width:0.5px;}.cls-7{letter-spacing:-0.04em;}.cls-8{letter-spacing:-0.09em;}.cls-9{letter-spacing:-0.01em;}.cls-10{letter-spacing:-0.01em;}.cls-12{fill:#231815;}.cls-13{font-size:17px;font-family:MicrosoftYaHei-Bold, Microsoft YaHei;font-weight:700;}.cls-14{letter-spacing:-0.02em;}.cls-15{letter-spacing:0em;}.cls-16{letter-spacing:0em;}</style></defs><title>资源 2</title><g id="图层_2" data-name="图层 2"><g id="图层_1-2" data-name="图层 1"><rect class="cls-1" x="211.63" y="342.63" width="63" height="17"/><rect class="cls-2" x="211.63" y="364.13" width="63" height="17"/><rect class="cls-2" x="151.63" y="282.13" width="95.5" height="17"/><rect class="cls-3" x="208.83" y="444.14" width="63" height="17"/><rect class="cls-1" x="151.13" y="185.13" width="71" height="16"/><rect class="cls-4" x="455.13" y="462.13" width="71" height="16"/><rect class="cls-4" x="209.13" y="464.13" width="71" height="16"/><rect class="cls-3" x="151.13" y="91.13" width="101" height="18"/></g><g id="图层_4" data-name="图层 4"><text class="cls-5" transform="translate(154.5 294.88)">子类 classSon</text><rect class="cls-6" x="137.75" y="269.39" width="206.89" height="255.23"/><rect class="cls-6" x="170.74" y="418.11" width="133.79" height="73.03"/><text class="cls-5" transform="translate(185.44 437.6)">普通方法<tspan x="0" y="21" xml:space="preserve">         super</tspan><tspan x="0" y="42" xml:space="preserve">         this</tspan></text><rect class="cls-6" x="171.54" y="316.6" width="133.79" height="73.03"/><text class="cls-5" transform="translate(186.24 336.09)">static 静态方法<tspan x="0" y="21" xml:space="preserve">         super</tspan><tspan x="0" y="42" xml:space="preserve">         this</tspan></text><rect class="cls-6" x="136.25" y="175.24" width="207.89" height="52.89"/><text class="cls-5" transform="translate(151 198.73)">父类<tspan x="0" y="16.8">class</tspan><tspan class="cls-7" x="31.45" y="16.8">F</tspan><tspan x="38.32" y="16.8">ather</tspan></text><rect class="cls-6" x="440.25" y="452.24" width="102.89" height="72.89"/><text class="cls-5" transform="translate(455 475.73)">子类实例<tspan x="0" y="16.8">insSon</tspan></text><rect class="cls-6" x="136.25" y="81.24" width="207.89" height="58.89"/><text class="cls-5" transform="translate(151 104.73)">父类的原型对象<tspan x="0" y="16.8">class</tspan><tspan class="cls-7" x="31.45" y="16.8">F</tspan><tspan x="38.32" y="16.8">athe</tspan><tspan class="cls-8" x="67.84" y="16.8">r</tspan><tspan x="71.93" y="16.8">.p</tspan><tspan class="cls-9" x="84.24" y="16.8">r</tspan><tspan x="89.39" y="16.8">o</tspan><tspan class="cls-10" x="98.29" y="16.8">t</tspan><tspan x="103.39" y="16.8">otype</tspan></text><text class="cls-5" transform="translate(410 400.73)">指向</text><polyline class="cls-11" points="270.33 453.33 398.33 453.33 398.33 101.73 259.39 101.73"/><polygon class="cls-12" points="252.33 101.73 262.28 97.67 259.92 101.73 262.28 105.8 252.33 101.73"/><text class="cls-5" transform="translate(0 326.73)">指向</text><polyline class="cls-11" points="203.18 351.8 40.8 351.8 40.8 192.56 126.07 192.56"/><polygon class="cls-12" points="133.13 192.56 123.18 196.63 125.54 192.56 123.18 188.5 133.13 192.56"/><polyline class="cls-11" points="217.18 370.95 54.8 370.95 54.8 292.33 140.07 292.33"/><polygon class="cls-12" points="147.13 292.33 137.18 296.39 139.54 292.33 137.18 288.26 147.13 292.33"/><line class="cls-11" x1="284.13" y1="472.13" x2="439.07" y2="472.13"/><polygon class="cls-12" points="446.13 472.13 436.18 476.19 438.54 472.13 436.18 468.06 446.13 472.13"/><text class="cls-13" transform="translate(136.63 14.63)">ja<tspan class="cls-14" x="14.95" y="0">v</tspan><tspan class="cls-15" x="24.48" y="0">aSc</tspan><tspan class="cls-16" x="53.31" y="0">r</tspan><tspan class="cls-15" x="60.57" y="0">ipt 的类中, super和this, </tspan><tspan x="0" y="20.4">在静态方法和普通方法中的不同指向</tspan></text></g></g></svg>