<svg xmlns="http://www.w3.org/2000/svg" viewBox="0 0 444.53 253.74"><defs><style>.cls-1{fill:#fff100;}.cls-2,.cls-4{font-size:9.49px;}.cls-2,.cls-6,.cls-8{fill:#231815;}.cls-2,.cls-4,.cls-8{font-family:MicrosoftYaHei, Microsoft YaHei;}.cls-3{letter-spacing:0.02em;}.cls-11,.cls-4{fill:#c30d23;}.cls-12,.cls-5,.cls-7{fill:none;stroke:#231815;stroke-miterlimit:10;}.cls-5,.cls-7{stroke-width:0.45px;}.cls-7{stroke-dasharray:2.02 2.02;}.cls-8{font-size:12px;}.cls-9{letter-spacing:0em;}.cls-10{letter-spacing:0.02em;}.cls-12{stroke-width:0.55px;}.cls-13{letter-spacing:-0.01em;}.cls-14{letter-spacing:0.04em;}.cls-15{letter-spacing:0em;}.cls-16{letter-spacing:0em;}</style></defs><title>资源 3</title><g id="图层_2" data-name="图层 2"><g id="图层_1-2" data-name="图层 1"><rect class="cls-1" x="11.84" y="195.8" width="66" height="15.33"/><rect class="cls-1" x="269.17" y="181.13" width="70.67" height="15.33"/><text class="cls-2" transform="translate(92.94 104.9)">t2.<tspan class="cls-3" x="11.38" y="0">t</tspan><tspan x="15.06" y="0">xt</tspan></text><text class="cls-2" transform="translate(220.94 104.9)">t2.<tspan class="cls-3" x="11.38" y="0">t</tspan><tspan x="15.06" y="0">xt</tspan></text><text class="cls-2" transform="translate(349.6 104.9)">t2.<tspan class="cls-3" x="11.38" y="0">t</tspan><tspan x="15.06" y="0">xt</tspan></text><text class="cls-4" transform="translate(150.69 114.59)">git add</text><line class="cls-5" x1="144.59" y1="98.81" x2="197.1" y2="98.81"/><polygon class="cls-6" points="200.29 98.81 195.79 100.65 196.86 98.81 195.79 96.97 200.29 98.81"/><line class="cls-5" x1="103.91" y1="173.32" x2="103.91" y2="172.32"/><line class="cls-7" x1="103.91" y1="170.3" x2="103.91" y2="122.82"/><line class="cls-5" x1="103.91" y1="121.81" x2="103.91" y2="120.81"/><polygon class="cls-6" points="103.91 117.62 105.75 122.11 103.91 121.04 102.07 122.11 103.91 117.62"/><text class="cls-4" transform="translate(277.92 114.31)">git commit</text><line class="cls-5" x1="274.45" y1="98.53" x2="316.4" y2="98.53"/><polygon class="cls-6" points="319.59 98.53 315.1 100.36 316.17 98.53 315.1 96.69 319.59 98.53"/><text class="cls-8" transform="translate(0 193.08)">可直接在资源管理器中删除它<tspan x="0" y="14.4">或 </tspan><tspan class="cls-9" x="15.55" y="14.4">r</tspan><tspan x="20.11" y="14.4">m t2.</tspan><tspan class="cls-10" x="49.3" y="14.4">t</tspan><tspan x="53.95" y="14.4">xt</tspan><tspan class="cls-9" x="0" y="43.2">r</tspan><tspan x="4.56" y="43.2">m 命令</tspan><tspan class="cls-11" x="43.35" y="43.2">只是删除”工作区”</tspan><tspan x="151.35" y="43.2">的文件，</tspan><tspan x="0" y="57.6">并没有删除”版本库”的文件</tspan></text><line class="cls-5" x1="358.58" y1="173.32" x2="358.58" y2="172.32"/><line class="cls-7" x1="358.58" y1="170.3" x2="358.58" y2="122.82"/><line class="cls-5" x1="358.58" y1="121.81" x2="358.58" y2="120.81"/><polygon class="cls-6" points="358.58 117.62 360.41 122.11 358.58 121.04 356.74 122.11 358.58 117.62"/><text class="cls-8" transform="translate(254.67 193.08)">用 git <tspan class="cls-9" x="34.44" y="0">r</tspan><tspan x="39" y="0">m t2.</tspan><tspan class="cls-10" x="68.19" y="0">t</tspan><tspan x="72.84" y="0">xt 命令,</tspan><tspan x="0" y="14.4">可以</tspan><tspan class="cls-11" x="24" y="14.4">同时删除”工作区”中的, </tspan><tspan class="cls-11"><tspan x="0" y="28.8">和”版本库”中</tspan><tspan class="cls-6" x="84" y="28.8">的t2文件</tspan></tspan></text><text class="cls-2" transform="translate(75.36 39.34)">目录 (工作区)</text><rect class="cls-12" x="63.72" y="22.74" width="81.31" height="112.2"/><text class="cls-2" transform="translate(203.13 39.34)">stage / index<tspan x="0" y="12.65">暂存区</tspan></text><rect class="cls-12" x="191.48" y="22.74" width="81.31" height="112.2"/><text class="cls-2" transform="translate(326.87 39.34)">版本库（commit His<tspan class="cls-13" x="89.63" y="0">t</tspan><tspan x="93.09" y="0">o</tspan><tspan class="cls-14" x="99.12" y="0">r</tspan><tspan class="cls-15" x="103.15" y="0">y）</tspan><tspan x="0" y="12.65">mas</tspan><tspan class="cls-13" x="18.52" y="12.65">t</tspan><tspan class="cls-16" x="21.98" y="12.65">er 分支</tspan></text><rect class="cls-12" x="318.91" y="22.74" width="81.31" height="112.2"/><text class="cls-2" transform="translate(62.17 8.13)">是可以直接编辑的地方</text><text class="cls-2" transform="translate(189.51 8.13)">数据暂时存放的区域</text><text class="cls-2" transform="translate(317.51 8.13)">存放已经提交的数据</text></g></g></svg>