<svg xmlns="http://www.w3.org/2000/svg" viewBox="0 0 505.16 430.04"><defs><style>.cls-1,.cls-8{font-size:9.49px;}.cls-1,.cls-15{fill:#c30d23;}.cls-1,.cls-4,.cls-5,.cls-8{font-family:MicrosoftYaHei, Microsoft YaHei;}.cls-11,.cls-14,.cls-2{fill:none;stroke-miterlimit:10;}.cls-11,.cls-2{stroke:#231815;}.cls-2{stroke-width:0.45px;}.cls-10,.cls-3,.cls-5,.cls-8{fill:#231815;}.cls-10,.cls-4,.cls-5{font-size:12px;}.cls-4{fill:#fff;}.cls-6{letter-spacing:-0.02em;}.cls-7{letter-spacing:0.02em;}.cls-9{letter-spacing:0.02em;}.cls-10{font-family:AdobeSongStd-Light-GBpc-EUC-H, Adobe Song Std;}.cls-11{stroke-width:0.55px;}.cls-12{letter-spacing:-0.01em;}.cls-13{letter-spacing:0em;}.cls-14{stroke:#c30d23;}</style></defs><title>资源 3</title><g id="图层_2" data-name="图层 2"><g id="图层_1-2" data-name="图层 1"><text class="cls-1" transform="translate(258.15 75.71)">尚未<tspan x="0" y="12.65">git add</tspan></text><text class="cls-1" transform="translate(257.47 302.95)">git add</text><line class="cls-2" x1="251.88" y1="288.93" x2="304.39" y2="288.93"/><polygon class="cls-3" points="307.58 288.93 303.09 290.77 304.16 288.93 303.09 287.09 307.58 288.93"/><circle class="cls-3" cx="275.07" cy="268.45" r="10.95"/><text class="cls-4" transform="translate(271.55 272.06)">1</text><circle class="cls-3" cx="166.1" cy="329.09" r="10.95"/><text class="cls-4" transform="translate(162.58 332.7)">2</text><circle class="cls-3" cx="202.13" cy="411.69" r="10.95"/><text class="cls-4" transform="translate(198.61 415.31)">3</text><text class="cls-5" transform="translate(0 86.53)">git chec<tspan class="cls-6" x="45.12" y="0">k</tspan><tspan x="51.4" y="0">out -- t1.</tspan><tspan class="cls-7" x="102.77" y="0">t</tspan><tspan x="107.43" y="0">xt</tspan><tspan x="0" y="14.4">会直接对工作区中的文件</tspan><tspan x="0" y="28.8">恢复</tspan></text><text class="cls-8" transform="translate(180.02 16.78)">目录 (工作区)</text><text class="cls-8" transform="translate(180.02 74.44)">t1.<tspan class="cls-9" x="11.38" y="0">t</tspan><tspan x="15.06" y="0">xt</tspan></text><text class="cls-10" transform="translate(180.02 113.96)">进行了错误修改</text><rect class="cls-11" x="168.38" y="0.28" width="81.31" height="163.59"/><text class="cls-8" transform="translate(307.79 16.78)">stage / index<tspan x="0" y="12.65">暂存区</tspan></text><rect class="cls-11" x="296.14" y="0.28" width="81.31" height="163.59"/><text class="cls-8" transform="translate(435.21 16.78)">mas<tspan class="cls-12" x="18.52" y="0">t</tspan><tspan class="cls-13" x="21.98" y="0">er 分支</tspan></text><rect class="cls-11" x="423.57" y="0.28" width="81.31" height="163.59"/><line class="cls-2" x1="194.22" y1="78.34" x2="194.22" y2="95.82"/><polygon class="cls-3" points="194.22 99.01 192.38 94.51 194.22 95.58 196.05 94.51 194.22 99.01"/><path class="cls-14" d="M174,108.5c-18.55,1.75-32-9-32.51-17.57-.44-7.51,8.73-17.84,23.5-20.47"/><path class="cls-15" d="M163.22,70.79l-2.52-3.37.11-.1,6.07,1.76,6.25.76-6,1.93-5.62,2.89-.13,0Z"/><path class="cls-14" d="M204.05,340.26c9.79,31.58,34.68,54.13,60.47,55.62,34.23,2,72.13-33,72.36-82.37"/><path class="cls-15" d="M336.87,315.3l-3.54,2.3-.08-.12,2.16-5.94,1.17-6.18,1.53,6.1,2.5,5.8-.05.13Z"/><text class="cls-5" transform="translate(221.46 412.57)">git chec<tspan class="cls-6" x="45.12" y="0">k</tspan><tspan x="51.4" y="0">out -- t1.</tspan><tspan class="cls-7" x="102.77" y="0">t</tspan><tspan x="107.43" y="0">xt</tspan><tspan x="0" y="14.4">会将工作区中的文件, 恢复到暂存区中的内容</tspan></text><text class="cls-8" transform="translate(180.02 235.61)">目录 (工作区)</text><text class="cls-8" transform="translate(180.02 293.26)">t1.<tspan class="cls-9" x="11.38" y="0">t</tspan><tspan x="15.06" y="0">xt</tspan></text><text class="cls-8" transform="translate(323.27 293.26)">t1.<tspan class="cls-9" x="11.38" y="0">t</tspan><tspan x="15.06" y="0">xt</tspan></text><text class="cls-10" transform="translate(180.02 332.78)">进行了错误修改</text><rect class="cls-11" x="168.38" y="219.1" width="81.31" height="163.59"/><text class="cls-8" transform="translate(307.79 235.61)">stage / index<tspan x="0" y="12.65">暂存区</tspan></text><rect class="cls-11" x="296.14" y="219.1" width="81.31" height="163.59"/><text class="cls-8" transform="translate(435.21 235.61)">mas<tspan class="cls-12" x="18.52" y="0">t</tspan><tspan class="cls-13" x="21.98" y="0">er 分支</tspan></text><rect class="cls-11" x="423.57" y="219.1" width="81.31" height="163.59"/><line class="cls-2" x1="194.22" y1="297.17" x2="194.22" y2="314.64"/><polygon class="cls-3" points="194.22 317.83 192.38 313.34 194.22 314.4 196.05 313.34 194.22 317.83"/></g></g></svg>