<svg xmlns="http://www.w3.org/2000/svg" viewBox="0 0 1010.56 695.53"><defs><style>.cls-1{fill:none;stroke:#231815;stroke-miterlimit:10;}.cls-2,.cls-3,.cls-4{font-size:21px;}.cls-2,.cls-4,.cls-7{fill:#231815;}.cls-2,.cls-3{font-family:MicrosoftYaHei, Microsoft YaHei;}.cls-3{fill:#c30d23;}.cls-4{font-family:MicrosoftYaHei-Bold, Microsoft YaHei;font-weight:700;}.cls-5{letter-spacing:0em;}.cls-6{letter-spacing:-0.01em;}</style></defs><title>资源 1</title><g id="图层_2" data-name="图层 2"><g id="图层_1-2" data-name="图层 1"><rect class="cls-1" x="0.5" y="0.5" width="956.95" height="454.48"/><rect class="cls-1" x="333.48" y="74" width="581.97" height="334.48"/><rect class="cls-1" x="399.48" y="139.99" width="179.99" height="239.99"/><text class="cls-2" transform="translate(32.36 45.93)">目录 (工作区)</text><text class="cls-3" transform="translate(209.35 303.92)">git add</text><text class="cls-2" transform="translate(357.85 117.93)"><tspan xml:space="preserve">.git  (版本库)</tspan></text><text class="cls-4" transform="translate(420.84 188.42)">stage / index<tspan x="0" y="28">暂存区</tspan></text><rect class="cls-1" x="652.97" y="139.99" width="179.99" height="239.99"/><text class="cls-4" transform="translate(674.33 188.42)">mas<tspan class="cls-5" x="43.12" y="0">t</tspan><tspan x="51.72" y="0">er 分支</tspan></text><text class="cls-3" transform="translate(588.84 494.17)">用git commit提交更改，<tspan x="0" y="28">就是把”暂存区”的所有内容, </tspan><tspan x="0" y="56">提交到”当前分支”。</tspan><tspan x="0" y="112">我们创建Git版本库时，</tspan><tspan x="0" y="140">Git自动为我们创建了唯一一个mas</tspan><tspan class="cls-6" x="322.03" y="140">t</tspan><tspan x="329.68" y="140">er分支，</tspan><tspan x="0" y="168">所以现在，</tspan><tspan x="0" y="196">git commit 就是往 mas</tspan><tspan class="cls-6" x="226.14" y="196">t</tspan><tspan x="233.79" y="196">er分支上提交更改。</tspan></text><text class="cls-3" transform="translate(206.35 494.17)">用git add，<tspan x="0" y="28">实际上就是把文件修改</tspan><tspan x="0" y="56">添加到”暂存区”</tspan></text><line class="cls-1" x1="154.99" y1="268.99" x2="428.42" y2="268.99"/><polygon class="cls-7" points="435.48 268.99 425.53 273.05 427.89 268.99 425.53 264.92 435.48 268.99"/><text class="cls-3" transform="translate(591.84 299.42)">git commit</text><line class="cls-1" x1="577.97" y1="268.99" x2="662.41" y2="268.99"/><polygon class="cls-7" points="669.47 268.99 659.52 273.05 661.88 268.99 659.52 264.92 669.47 268.99"/></g></g></svg>