<svg xmlns="http://www.w3.org/2000/svg" viewBox="0 0 380.64 218.49"><defs><style>.cls-1,.cls-4,.cls-5{fill:none;stroke:#231815;stroke-miterlimit:10;}.cls-1{stroke-width:0.5px;}.cls-2{font-size:10px;fill:#231815;font-family:MicrosoftYaHei, Microsoft YaHei;}.cls-3{letter-spacing:-0.01em;}.cls-5{stroke-dasharray:2.04 2.04;}</style></defs><title>资源 1</title><g id="图层_2" data-name="图层 2"><g id="图层_3" data-name="图层 3"><rect class="cls-1" x="78.17" y="43.61" width="302.22" height="174.63"/><rect class="cls-1" x="106.17" y="78.57" width="81.56" height="36.67"/><rect class="cls-1" x="187.72" y="78.57" width="81.56" height="36.67"/><rect class="cls-1" x="269.28" y="78.57" width="81.56" height="36.67"/><rect class="cls-1" x="106.17" y="115.24" width="81.56" height="36.67"/><rect class="cls-1" x="187.72" y="115.24" width="81.56" height="36.67"/><rect class="cls-1" x="269.28" y="115.24" width="81.56" height="36.67"/><rect class="cls-1" x="106.17" y="151.91" width="81.56" height="36.67"/><rect class="cls-1" x="187.72" y="151.91" width="81.56" height="36.67"/><rect class="cls-1" x="269.28" y="151.91" width="81.56" height="36.67"/></g><g id="图层_2-2" data-name="图层 2"><text class="cls-2" transform="translate(0 69.24)"><tspan class="cls-3">p</tspan><tspan x="6.25" y="0">adding</tspan><tspan x="0" y="12">+抽奖券高*0</tspan></text><text class="cls-2" transform="translate(71.5 8.57)"><tspan class="cls-3">p</tspan><tspan x="6.25" y="0">adding</tspan><tspan x="0" y="12">+抽奖券宽*0</tspan></text><line class="cls-4" x1="106.17" y1="69.24" x2="106.17" y2="68.24"/><line class="cls-5" x1="106.17" y1="66.2" x2="106.17" y2="34.59"/><line class="cls-4" x1="106.17" y1="33.57" x2="106.17" y2="32.57"/><text class="cls-2" transform="translate(184 8.57)"><tspan class="cls-3">p</tspan><tspan x="6.25" y="0">adding</tspan><tspan x="0" y="12">+抽奖券宽*1</tspan></text><text class="cls-2" transform="translate(0 106.07)"><tspan class="cls-3">p</tspan><tspan x="6.25" y="0">adding</tspan><tspan x="0" y="12">+抽奖券高*1</tspan></text><line class="cls-4" x1="188.17" y1="69.24" x2="188.17" y2="68.24"/><line class="cls-5" x1="188.17" y1="66.2" x2="188.17" y2="34.59"/><line class="cls-4" x1="188.17" y1="33.57" x2="188.17" y2="32.57"/><text class="cls-2" transform="translate(265.12 8.57)"><tspan class="cls-3">p</tspan><tspan x="6.25" y="0">adding</tspan><tspan x="0" y="12">+抽奖券宽*2</tspan></text><line class="cls-4" x1="269.28" y1="69.24" x2="269.28" y2="68.24"/><line class="cls-5" x1="269.28" y1="66.2" x2="269.28" y2="34.59"/><line class="cls-4" x1="269.28" y1="33.57" x2="269.28" y2="32.57"/><line class="cls-4" x1="101.24" y1="78.57" x2="100.24" y2="78.57"/><line class="cls-5" x1="98.2" y1="78.57" x2="66.6" y2="78.57"/><line class="cls-4" x1="65.58" y1="78.57" x2="64.58" y2="78.57"/><line class="cls-4" x1="101.24" y1="115.24" x2="100.24" y2="115.24"/><line class="cls-5" x1="98.2" y1="115.24" x2="66.6" y2="115.24"/><line class="cls-4" x1="65.58" y1="115.24" x2="64.58" y2="115.24"/><text class="cls-2" transform="translate(0 142.74)"><tspan class="cls-3">p</tspan><tspan x="6.25" y="0">adding</tspan><tspan x="0" y="12">+抽奖券高*2</tspan></text><line class="cls-4" x1="101.24" y1="151.91" x2="100.24" y2="151.91"/><line class="cls-5" x1="98.2" y1="151.91" x2="66.6" y2="151.91"/><line class="cls-4" x1="65.58" y1="151.91" x2="64.58" y2="151.91"/><rect class="cls-4" x="107.37" y="73.24" width="12.26" height="12.26" rx="6.13" ry="6.13"/><rect class="cls-4" x="107.37" y="115.24" width="12.26" height="12.26" rx="6.13" ry="6.13"/><rect class="cls-4" x="107.37" y="151.91" width="12.26" height="12.26" rx="6.13" ry="6.13"/><rect class="cls-4" x="188.33" y="115.24" width="12.26" height="12.26" rx="6.13" ry="6.13"/><rect class="cls-4" x="188.33" y="151.91" width="12.26" height="12.26" rx="6.13" ry="6.13"/><rect class="cls-4" x="188.33" y="73.24" width="12.26" height="12.26" rx="6.13" ry="6.13"/><rect class="cls-4" x="269.28" y="73.24" width="12.26" height="12.26" rx="6.13" ry="6.13"/></g></g></svg>